<?xml version="1.0" encoding="UTF-8"?> <svg xmlns="http://www.w3.org/2000/svg" width="23" height="23" viewBox="0 0 23 23" fill="none"><path d="M0 0V5.42057L1.80686 3.61372L6.76324 8.5701L8.5701 6.76324L3.61372 1.80686L5.42057 0H0ZM17.5794 0L19.3863 1.80686L14.4299 6.76324L16.2368 8.5701L21.1931 3.61372L23 5.42057V0H17.5794ZM11.5 1.27778C10.0855 1.27778 8.73611 1.56753 7.50944 2.08887L9.52094 4.10286C10.1534 3.93292 10.8151 3.83333 11.5 3.83333C12.1849 3.83333 12.8466 3.93292 13.4791 4.10286L15.4906 2.08887C14.2639 1.56753 12.9145 1.27778 11.5 1.27778ZM2.08887 7.50944C1.56753 8.73611 1.27778 10.0855 1.27778 11.5C1.27778 12.9145 1.56753 14.2639 2.08887 15.4906L4.10286 13.4791C3.93292 12.8466 3.83333 12.1849 3.83333 11.5C3.83333 10.8151 3.93292 10.1534 4.10286 9.52094L2.08887 7.50944ZM20.9111 7.50944L18.8971 9.52094C19.0671 10.1534 19.1667 10.8151 19.1667 11.5C19.1667 12.1849 19.0671 12.8466 18.8971 13.4791L20.9111 15.4906C21.4325 14.2639 21.7222 12.9145 21.7222 11.5C21.7222 10.0855 21.4325 8.73611 20.9111 7.50944ZM6.76324 14.4299L1.80686 19.3863L0 17.5794V23H5.42057L3.61372 21.1931L8.5701 16.2368L6.76324 14.4299ZM16.2368 14.4299L14.4299 16.2368L19.3863 21.1931L17.5794 23H23V17.5794L21.1931 19.3863L16.2368 14.4299ZM9.52094 18.8971L7.50944 20.9111C8.73611 21.4325 10.0855 21.7222 11.5 21.7222C12.9145 21.7222 14.2639 21.4325 15.4906 20.9111L13.4791 18.8971C12.8466 19.0671 12.1849 19.1667 11.5 19.1667C10.8151 19.1667 10.1534 19.0671 9.52094 18.8971Z" fill="#8600FF"></path></svg> 