<?xml version="1.0" encoding="UTF-8"?> <svg xmlns="http://www.w3.org/2000/svg" width="28" height="21" viewBox="0 0 28 21" fill="none"><path d="M2.04878 0C1.50541 0 0.984295 0.221249 0.600074 0.615075C0.215853 1.0089 0 1.54305 0 2.1C0 2.65695 0.215853 3.1911 0.600074 3.58492C0.984295 3.97875 1.50541 4.2 2.04878 4.2C2.59215 4.2 3.11327 3.97875 3.49749 3.58492C3.88171 3.1911 4.09756 2.65695 4.09756 2.1C4.09756 1.54305 3.88171 1.0089 3.49749 0.615075C3.11327 0.221249 2.59215 0 2.04878 0ZM7.5122 0.7V3.5H28V0.7H7.5122ZM2.04878 8.4C1.50541 8.4 0.984295 8.62125 0.600074 9.01508C0.215853 9.4089 0 9.94305 0 10.5C0 11.057 0.215853 11.5911 0.600074 11.9849C0.984295 12.3788 1.50541 12.6 2.04878 12.6C2.59215 12.6 3.11327 12.3788 3.49749 11.9849C3.88171 11.5911 4.09756 11.057 4.09756 10.5C4.09756 9.94305 3.88171 9.4089 3.49749 9.01508C3.11327 8.62125 2.59215 8.4 2.04878 8.4ZM7.5122 9.1V11.9H28V9.1H7.5122ZM2.04878 16.8C1.50541 16.8 0.984295 17.0212 0.600074 17.4151C0.215853 17.8089 0 18.343 0 18.9C0 19.457 0.215853 19.9911 0.600074 20.3849C0.984295 20.7787 1.50541 21 2.04878 21C2.59215 21 3.11327 20.7787 3.49749 20.3849C3.88171 19.9911 4.09756 19.457 4.09756 18.9C4.09756 18.343 3.88171 17.8089 3.49749 17.4151C3.11327 17.0212 2.59215 16.8 2.04878 16.8ZM7.5122 17.5V20.3H28V17.5H7.5122Z" fill="#8600FF"></path></svg> 