<?xml version="1.0" encoding="UTF-8"?> <svg xmlns="http://www.w3.org/2000/svg" xmlns:xlink="http://www.w3.org/1999/xlink" viewBox="0 0 30 30" width="30px" height="30px"><g id="surface264785287"><path style=" stroke:none;fill-rule:nonzero;fill:rgb(0%,49.803922%,74.509805%);fill-opacity:1;" d="M 15.011719 3 C 14.820312 3 14.640625 3 14.449219 3.011719 C 7.828125 3.320312 2.710938 8.929688 3.011719 15.550781 C 3.308594 21.988281 8.621094 27 14.988281 27 C 15.179688 27 15.359375 27 15.550781 26.988281 C 22.171875 26.679688 27.289062 21.070312 26.988281 14.449219 C 26.691406 8.011719 21.378906 3 15.011719 3 Z M 12.511719 15.871094 L 12.539062 15.890625 L 13.910156 16.570312 L 13.941406 16.578125 L 14.550781 16.890625 C 14.828125 17.039062 15.171875 17.039062 15.449219 16.890625 L 16.019531 16.601562 L 16.050781 16.589844 L 17.578125 15.828125 L 17.589844 15.820312 L 20.851562 14.191406 L 22 13.621094 L 22 19 C 22 19.550781 21.550781 20 21 20 L 9 20 C 8.449219 20 8 19.550781 8 19 L 8 13.621094 L 9.179688 14.210938 Z M 21.449219 11.660156 L 18.160156 13.300781 L 18.148438 13.308594 L 15 14.878906 L 11.96875 13.371094 L 11.960938 13.359375 L 8.550781 11.660156 C 8.210938 11.488281 8 11.140625 8 10.761719 L 8 10 L 22 10 L 22 10.761719 C 22 11.148438 21.789062 11.488281 21.449219 11.660156 Z M 21.449219 11.660156 "></path></g></svg> 