<?xml version="1.0" encoding="UTF-8"?> <svg xmlns="http://www.w3.org/2000/svg" xmlns:xlink="http://www.w3.org/1999/xlink" version="1.1" id="Layer_1" x="0px" y="0px" viewBox="0 0 30 30" style="enable-background:new 0 0 30 30;" xml:space="preserve"> <style type="text/css"> .st0{fill:#007FBE;} .st1{fill:#FFFFFF;} </style> <g id="surface263965955"> <circle class="st0" cx="15.2" cy="15" r="12"></circle> </g> <g id="surface263977820"> <path class="st1" d="M18.3,17c-0.2-0.1-0.5-0.1-0.7,0l-1.1,0.6c-0.2,0.1-0.5,0.1-0.8,0c-0.4-0.3-1-0.8-1.5-1.3 c-0.5-0.5-1-1.2-1.3-1.5c-0.2-0.2-0.2-0.5,0-0.8l0.6-1.1c0.1-0.2,0.1-0.5,0-0.7l-1.6-2.7c-0.2-0.3-0.5-0.4-0.8-0.3 c-0.3,0.1-0.7,0.2-1.1,0.6c-1.2,1.2-1.9,3.3,2.7,7.9c4.6,4.6,6.7,4,7.9,2.7c0.4-0.4,0.6-0.8,0.6-1.1c0.1-0.3-0.1-0.6-0.3-0.8 C20.3,18.2,18.9,17.4,18.3,17z"></path> </g> </svg> 