<?xml version="1.0" encoding="UTF-8"?> <svg xmlns="http://www.w3.org/2000/svg" width="177" height="126" viewBox="0 0 177 126" fill="none"><g clip-path="url(#clip0_201_200)"><path fill-rule="evenodd" clip-rule="evenodd" d="M6.22867 28.703L1.06375 29.4431L3.13825 69.8295L3.66905 80.163L6.00454 125.63L30.7099 122.09L29.9125 106.567L36.1765 105.669L36.7081 116.018L41.8729 115.278L42.1387 120.453L164.917 102.86L163.322 71.8124L173.652 70.3323L172.912 55.9119L172.381 45.5784L171.639 31.1425L150.98 34.1028L149.38 2.9623L124.674 6.50239L126.274 37.6429L120.01 38.5404L118.411 7.39995L5.96207 23.513L6.22867 28.703ZM162.61 46.9784L162.371 42.3322L141.711 45.2926L140.112 14.152L134.947 14.8921L136.786 50.6788L162.61 46.9784ZM131.641 51.416L131.402 46.7698L110.743 49.7302L109.143 18.5896L103.978 19.3297L105.816 55.1165L131.641 51.416ZM100.671 55.8537L100.433 51.2075L90.1035 52.6877L88.7706 26.7372L99.0996 25.2571L98.833 20.067L73.0088 23.7674L73.2754 28.9575L83.6052 27.4773L84.9382 53.4278L74.6084 54.9079L74.8471 59.5541L100.671 55.8537ZM69.7023 60.2914L69.1971 50.455L64.0321 51.1951L63.7655 46.005L58.6006 46.7451L58.334 41.5551L63.4989 40.815L63.2323 35.6248L68.3973 34.8847L67.8641 24.5046L62.6991 25.2447L63.2323 35.6248L58.0674 36.365L58.334 41.5551L48.0042 43.0352L47.2044 27.4649L42.0395 28.205L43.8777 63.9918L49.0427 63.2517L48.2708 48.2253L58.6006 46.7451L58.8672 51.9352L64.0321 51.1951L64.5374 61.0315L69.7023 60.2914ZM33.5682 65.4691L33.3295 60.8228L38.4943 60.0827L37.9611 49.7026L32.7963 50.4427L32.5297 45.2526L17.0349 47.4729L16.5017 37.0927L37.1614 34.1323L36.8948 28.9423L16.2351 31.9026L16.5017 37.0927L11.3369 37.8328L11.8701 48.2129L17.0349 47.4729L17.3015 52.6629L32.7963 50.4427L33.3295 60.8228L12.6699 63.7832L12.9085 68.4294L33.5682 65.4691ZM137.316 61.0124L163.141 57.3119L163.378 61.9426L153.049 63.4228L154.643 94.4704L149.479 95.2104L147.884 64.1629L137.554 65.6431L137.316 61.0124ZM127.007 62.4897L132.171 61.7496L134.004 97.4276L128.839 98.1676L128.308 87.8185L123.143 88.5585L122.877 83.3841L128.042 82.644L127.007 62.4897ZM106.347 65.45L111.512 64.7099L112.016 74.5152L117.181 73.7751L117.446 78.9497L112.282 79.6897L113.345 100.388L108.18 101.128L106.347 65.45ZM75.3779 69.8876L101.202 66.1873L101.44 70.8179L91.1109 72.2981L92.4398 98.1707L102.769 96.6907L103.035 101.865L77.2105 105.566L76.9447 100.392L87.2745 98.9107L85.9455 73.0382L75.6157 74.5184L75.3779 69.8876ZM49.5735 73.5852L65.0682 71.365L65.306 75.9957L49.8113 78.2159L49.5735 73.5852ZM13.4393 78.763L34.099 75.8026L34.3368 80.4333L39.5017 79.6933L40.0333 90.0423L34.8684 90.7824L34.3421 80.5368L18.842 82.6536L19.3736 93.0027L34.8684 90.7824L35.1342 95.9569L19.6394 98.1768L20.4368 113.701L15.272 114.441L13.4393 78.763ZM51.1403 104.089L49.8113 78.2159L44.6464 78.956L45.9754 104.829L51.1403 104.089ZM66.635 101.869L66.9008 107.043L51.4061 109.263L51.1403 104.089L66.635 101.869ZM66.635 101.869L71.7999 101.128L70.471 75.2555L65.306 75.9957L66.635 101.869ZM117.446 78.9497L122.611 78.2095L122.877 83.3841L117.712 84.1242L117.446 78.9497Z" fill="url(#paint0_radial_201_200)"></path><path fill-rule="evenodd" clip-rule="evenodd" d="M9.18243 36.0736L14.3474 35.3334L14.0808 30.1433L38.8379 26.5958L39.3154 35.8916L18.6557 38.8519L18.978 45.1265L34.4727 42.9062L34.7393 48.0963L39.9043 47.3562L40.6484 61.842L35.4834 62.5821L35.75 67.7722L10.9929 71.3196L10.5154 62.024L31.175 59.0636L30.8527 52.7891L15.358 55.0093L15.0914 49.8192L9.92651 50.5593L9.18243 36.0736ZM39.8851 26.4458L49.1475 25.1186L49.9473 40.6888L56.1796 39.7958L55.913 34.6057L61.078 33.8656L60.5448 23.4855L69.8071 22.1582L70.5512 36.644L65.3864 37.3841L65.653 42.5742L60.488 43.3142L60.5437 44.3987L65.7087 43.6586L65.9753 48.8487L71.1401 48.1086L71.8842 62.5944L62.6218 63.9217L62.0886 53.5415L56.9237 54.2816L56.6571 49.0915L50.4248 49.9845L51.2245 65.5548L41.9622 66.882L39.8851 26.4458ZM70.8544 22.0081L100.776 17.7206L101.254 27.0162L90.9241 28.4965L92.0462 50.3413L102.376 48.861L102.853 58.1568L72.9314 62.4443L72.4539 53.1487L82.7838 51.6684L81.6617 29.8236L71.3319 31.3039L70.8544 22.0081ZM101.823 17.5705L111.086 16.2432L112.686 47.3838L133.345 44.4234L133.823 53.7191L103.9 58.0067L101.823 17.5705ZM132.793 13.1328L142.055 11.8056L143.655 42.9461L164.315 39.9857L164.792 49.2815L134.87 53.5691L132.793 13.1328ZM36.0141 72.9123L11.2569 76.4598L13.3284 116.787L22.5908 115.46L21.7934 99.9362L37.2881 97.7162L37.0223 92.5412L42.1872 91.8012L41.4448 77.3468L36.2798 78.0869L36.0141 72.9123ZM47.6569 76.4567L42.492 77.1967L44.0319 107.175L49.1968 106.435L49.4625 111.609L69.0548 108.802L68.789 103.627L73.9539 102.887L72.414 72.9092L67.2492 73.6493L66.9834 68.4747L47.3911 71.2821L47.6569 76.4567ZM103.118 63.297L73.1955 67.5845L73.6722 76.8647L84.002 75.3846L85.1201 97.1513L74.7903 98.6321L75.267 107.912L105.189 103.624L104.712 94.3441L94.3824 95.8241L93.2644 74.0573L103.594 72.5771L103.118 63.297ZM113.427 61.8196L104.164 63.1469L106.236 103.474L115.499 102.147L114.435 81.4489L115.503 81.296L115.768 86.4705L120.934 85.7304L121.2 90.905L126.364 90.165L126.896 100.514L136.158 99.187L134.087 58.8593L124.824 60.1865L125.887 80.8847L124.82 81.0376L124.554 75.8631L119.39 76.6032L119.124 71.4287L113.959 72.1688L113.427 61.8196ZM165.056 54.4217L135.134 58.7093L135.61 67.9894L145.94 66.5093L147.535 97.5569L156.798 96.2289L155.203 65.182L165.533 63.7019L165.056 54.4217ZM21.3167 90.6563L20.9967 84.4265L32.3979 82.8695L32.7139 89.0231L21.3167 90.6563ZM65.5119 87.4776L61.7553 88.0159L62.2935 98.4927L54.7804 99.5695L54.2422 89.0925L50.423 89.6398L50.3424 88.0714L52.0328 87.8292L51.9523 86.2608L53.6428 86.0186L53.5622 84.4503L54.6893 84.2887L54.6087 82.7204L55.7982 82.5499L55.7177 80.9816L59.4116 80.4523L59.4922 82.0206L60.6818 81.8501L60.7624 83.4186L61.9519 83.2481L62.0325 84.8164L63.7229 84.5742L63.8035 86.1426L65.4313 85.9093L65.5119 87.4776Z" fill="white"></path></g><defs><radialGradient id="paint0_radial_201_200" cx="0" cy="0" r="1" gradientUnits="userSpaceOnUse" gradientTransform="translate(155.329 14.2296) rotate(140.606) scale(184.273 407.765)"><stop offset="0.015625" stop-color="#00FFFF"></stop><stop offset="0.473933" stop-color="#8600FF"></stop><stop offset="1" stop-color="#FF00E5"></stop></radialGradient><clipPath id="clip0_201_200"><rect width="170.301" height="117.082" fill="white" transform="translate(0 8.73624) rotate(-2.94049)"></rect></clipPath></defs></svg> 