<?xml version="1.0" encoding="UTF-8"?> <svg xmlns="http://www.w3.org/2000/svg" xmlns:xlink="http://www.w3.org/1999/xlink" id="Layer_2" data-name="Layer 2" width="1007.8" height="596.1" viewBox="0 0 1007.8 596.1"><defs><linearGradient id="linear-gradient" x1="0.5" x2="0.5" y2="1" gradientUnits="objectBoundingBox"><stop offset="0" stop-color="#70f"></stop><stop offset="1" stop-color="#4b00ff" stop-opacity="0.722"></stop></linearGradient></defs><g id="Layer_1" data-name="Layer 1"><path id="Path_1" data-name="Path 1" d="M58.13.79c-1.59.66-.73,2.24,3.63,2L64.9.23Z" fill="url(#linear-gradient)"></path><path id="Path_2" data-name="Path 2" d="M87.32,6.29C92.46,5.11,98.41,3,95.14.48,90,2.92,88.82,1.83,83.3,4.75c-4.37.22-7.59-1-6.83-2-1.56.64-6.76-.72-9.13.89,5.62,2.17,12.8,2.39,20.33.85C89.27,5.15,87.69,5.81,87.32,6.29Z" fill="url(#linear-gradient)"></path><path id="Path_3" data-name="Path 3" d="M512.8,19l-2.74-.37a16,16,0,0,0,2.74.37Z" fill="url(#linear-gradient)"></path><path id="Path_4" data-name="Path 4" d="M776.45,25.8c-2,0-2.86.27-3,.51C775.35,26.17,776.89,26,776.45,25.8Z" fill="url(#linear-gradient)"></path><path id="Path_5" data-name="Path 5" d="M821.4,29.63c-1-.1-1.77-.16-2.65-.23a5.69,5.69,0,0,0,2.65.23Z" fill="url(#linear-gradient)"></path><path id="Path_6" data-name="Path 6" d="M512.8,19l7,1C520.34,19.14,516.23,19.28,512.8,19Z" fill="url(#linear-gradient)"></path><path id="Path_7" data-name="Path 7" d="M146.13,1.09a19.89,19.89,0,0,0-3.84.62c1.21-.09,2.39-.16,3.6-.21a2.549,2.549,0,0,1,.24-.41Z" fill="url(#linear-gradient)"></path><path id="Path_8" data-name="Path 8" d="M396.52,18.82h-2.14a10,10,0,0,0-1.8,1Z" fill="url(#linear-gradient)"></path><path id="Path_9" data-name="Path 9" d="M307.31,17.42c2,.14,2.76-2.1,3.55-3.06a8.09,8.09,0,0,1-4.43,1.45C306.39,16.24,306.64,16.75,307.31,17.42Z" fill="url(#linear-gradient)"></path><path id="Path_10" data-name="Path 10" d="M165.94,10.6l-2.52.27C164.08,10.78,165.18,10.71,165.94,10.6Z" fill="url(#linear-gradient)"></path><path id="Path_11" data-name="Path 11" d="M460.36,20.59a1.79,1.79,0,0,0,.79.82C461.16,21.13,460.85,20.86,460.36,20.59Z" fill="url(#linear-gradient)"></path><path id="Path_12" data-name="Path 12" d="M39.13,108.35c.16.08.27,0,.4,0C39.35,107.84,39.2,107.67,39.13,108.35Z" fill="url(#linear-gradient)"></path><path id="Path_13" data-name="Path 13" d="M58.6,6.16V7.6a3.64,3.64,0,0,0,1.24.4Z" fill="url(#linear-gradient)"></path><path id="Path_14" data-name="Path 14" d="M903.73,34.17l-.36-.05C901.2,34.34,902.43,34.32,903.73,34.17Z" fill="url(#linear-gradient)"></path><path id="Path_15" data-name="Path 15" d="M828.89,567.86c8.58,1.93-13.93,2.72-1,4.83C826.68,571.82,839.58,569.07,828.89,567.86Z" fill="url(#linear-gradient)"></path><path id="Path_16" data-name="Path 16" d="M148.43,1.43c1.21,0,2.43,0,3.66.05a27.349,27.349,0,0,0-3.66-.05Z" fill="url(#linear-gradient)"></path><path id="Path_17" data-name="Path 17" d="M827.89,572.69h0l1.33.2Z" fill="url(#linear-gradient)"></path><path id="Path_18" data-name="Path 18" d="M977.93,119.27a5.561,5.561,0,0,0,1.19-1.82C978.89,117.49,978.56,117.89,977.93,119.27Z" fill="url(#linear-gradient)"></path><path id="Path_19" data-name="Path 19" d="M952.24,30.6l3.49.37a29.787,29.787,0,0,0-3.49-.37Z" fill="url(#linear-gradient)"></path><path id="Path_20" data-name="Path 20" d="M973,192.61a17.61,17.61,0,0,0-.74,5.1,4.768,4.768,0,0,0,.36-.75,9,9,0,0,1,.38-4.35Z" fill="url(#linear-gradient)"></path><path id="Path_21" data-name="Path 21" d="M964.61,268.6c.21-.39.4-.91.6-1.36,0-.75.1-1.64.15-2.42Z" fill="url(#linear-gradient)"></path><path id="Path_22" data-name="Path 22" d="M21.41,340a11.45,11.45,0,0,1,2.3-3.35C22,337.68,22.37,326.44,21.41,340Z" fill="url(#linear-gradient)"></path><path id="Path_23" data-name="Path 23" d="M146.14,2.35a3,3,0,0,1,2.29-.92c-.87,0-1.72,0-2.54.07C145.66,1.83,145.61,2.15,146.14,2.35Z" fill="url(#linear-gradient)"></path><path id="Path_24" data-name="Path 24" d="M990.29,197.66l-1.66,12C989.22,206.34,989.82,202,990.29,197.66Z" fill="url(#linear-gradient)"></path><path id="Path_25" data-name="Path 25" d="M314.35,591.32l-2.79.3a7.579,7.579,0,0,0,2.79-.3Z" fill="url(#linear-gradient)"></path><path id="Path_26" data-name="Path 26" d="M985,245.55a31.674,31.674,0,0,0-2.3,6.63,5.476,5.476,0,0,0,.43,1.46Z" fill="url(#linear-gradient)"></path><path id="Path_27" data-name="Path 27" d="M23.74,336.61Z" fill="url(#linear-gradient)"></path><path id="Path_28" data-name="Path 28" d="M24.89,256.45c-1,11.53,2.44,5.65,3.93,8.23-.28,13.84-2.68,6.2-4.57,10.76.08,8.66,2.25,15.47,1.62,21.87-.53.44-.81,1.68-1.29.16,1.6,9.28-2.08,27,0,37.82a3.11,3.11,0,0,1-.84,1.32c1.61-1.59,3.14-1.73,4.17-1.29-.37,5.17,1.09,9.74-1,11.53.32-3.16-.44-3.49-.92-5l.4,5.48C23.22,352,26,339.84,24,339.67c0,10.64,1.33,23.14-.1,31.17-2.85,1.48.62-19-2.66-8.39L23.27,350c-5.05,9.23.91-7.58-4.37.84-2.12,16.42-.12,18.55-2.24,34.93,1.2,3.83,2.32-1,3.53,2.78.8,23.6-8.3,17.85-6.09,35.33,1.44,4.59,4.73,6.59,1.92,18.68l-2.72-4.42c-1.6,15.94,3.66,9.47.24,26-1-3.07,0-12.63-.55-10.24-3.3,10.63,1.11,7.8.44,16.12l-2.86,1.51c-1,17-.51,35.9-1.54,54.76-.72-1.1-1.31-4.4-2.5-.06-.22,9.34-1,19.13-2,29-.51,4.9-1.09,9.82-1.71,14.69C1.9,578.49.94,587,0,595.38l13.83.37,7,.19,3.48.1h1.42l.93.06,8.75-2.43c2.05,0,3.8,1,1.6,1.5,9,.8.45-1.5,4.74-2.46,5.09-.21,6.74,1.28,3.52,2,15.78-2.14,45-4.73,61.62-2.37l-3.23.73c13,.82,14.57-5,26.62-2.89l-2.31.44c28.14.75,59.21-1.71,80.7,1.63,4.05-3.42,27.86,1.24,29.62-3.5,16.08,2.18,11.49,3.07,34.13,4.42,6,.16,9-3,16.44-3.59l.21,2.46,10.11-2.69,5.42,2.9,7-.7c-2.79-.12-5.94-1-5.52-1.76,10.93-1.23,26.69,1.46,27,2.72l25.87-2.34c-.56,1-4.89,1.38-8.32,2,13.8-2.65,2.54,2.58,15.18.15-1.7-.54.9-1.48,1.19-2,6.32,1.43,20.69,1.3,31.32.57l-2,1.72c19.21.25,40.48-1.21,62-1.39-7.74-.71-6-3.68.33-4l2.55,2.58c4.06-1.65-6.61-.92,1.75-3,8.05.22,5.44,2.91.82,3.8l9.78-1c.58.77-1.71,1.21-2.29,2.2,4-1.65,16.91,2.45,22.68-.41l.56.77c21.54-.19,31.31-1.18,48.86-1.48.32-2.26,7.18-1.82,12.4-3.69,12.9.59,27.23,2.22,42.77,1.88,10.91-1.23,3.17-1.94,8.07-3.32.82,2,16.34,1.7,8.3,3.25,18.65-.52,23.82-.64,47.39-2.54-2.57-.81-5.45-1.15-4-1.86,4.28-.38,9.75.76,9.15,1.75l-1.13.23c26.44-3.33,61.16,5.38,82.2.9l-1.18.22,21.85-2.44c10.06.26-6,1.6,1.43,2.8,23.55-3.65,37.27.13,56.67-2.34,15.09,5.9,53.34-.94,73.67,2.72L899.73,587c5.23-1.45,6.35.75,10.22,1-.56-1.1-5.71-1.22-2.46-2q7.31-.35,14.71-.52l3.9-.07,6.35-.08,12.78-.11,1.32-11.27.69-5.68.55-4.37q.91-6.63,1.83-13.3c1.28-8.89,2.64-17.81,4-26.72,2.77-17.84,5.63-35.68,8.09-53.3,2.21-16.51-6.28-10.2-.59-30.7l2,6.21c.55-33.76,7.67-68.31,8.62-101.32.39,2,1.17,2.16.81,5.35,2.67-6.7,2.92-25.54,1.38-25.83.74-5.07,1.54-1,2.67-4.08,1.9-6.8-.51-17.66,1.8-21.13.38-.6.4,2,.41,3.3-.42-4.62,2.57-21-.11-16.94,2.41-12.16,1.62-23.59,4-33.24-1.75-6.66,3.52-20.89.26-23.3,3.5,1.28,5.28-21.2,4.45-29.16.8,2.72,1.88-6.62,3-3.41.93-8.87,1.16-17.06-.85-15.72,6.11-15.84.16-33.19,6.7-41.77,1-26.53,2.37-51,4.14-74.79,3.5,1.25-2.54,26.21,1.34,25.61.51-11.31.35-20.29.48-29.22.06-4.46.2-8.9.53-13.62.1-1.18.19-2.38.29-3.6,0-.6.11-1.22.17-1.84s.15-1.42.22-2.13c.43-3.9.93-7.94,1.52-12.32.76-4.6,1-3.71,1.17-1s0,7.17.16,8.82c.45-6.3,1-12.33,1.52-18.19-7.92,0-15.51-.16-23-.31l-13.65-.3c-8.78-.16-17.35-.17-25.76.48.06-.33,2.24-.65,4.29-.89-4,0-9.19-.71-8.78.93l3.87-.36C951,18.58,929,20.72,928.22,22c6.81-4.57-19.81-1.59-9-7.31-2.62.26-5.9,1-5.32,2.08-3.86-.4-5.08-1.07-1.13-2.24-14.19.61-9.19,2.46-22,2.16.07-.79,2.66-1.05,4-1.95-6.53,1.41-13.1,2.83-23.94,1.94.66-.47-.58-1.12,2.65-1-18.64-.14-31.85,3.48-52.27,1.57,6.1-3.32-6.93-1.27-8-4.28l-11,.67,4.38,1.54c-9.63-.25-18.19,1.75-26.45.61l7.19-1.09-18.07.2,10.2,1.34c-9.78,1.34,1,3.8-11.84,2.71,2.61-.25-9.63-.23-14.62-2.09h0c-4.79.86-9.71,1.76-16.82.87-1.83-1,1.56-3.27.36-3.93C731.81,16.12,714,14,708,16.5c2-.59,2.14-2.15,1.49-2.49l-4,2c-4.44-.74-5.09-1.06-4.34-2.3-13.42-.64,4.19,3.87-11.71,1.92,1.25-.14.66-.46,3.27-.71-16-1.17-30.93.66-45.62-.63-4.27-3.09,12.86-.48,7.95-3.11-21.21.11-44,2.71-64.46,1.59l3.81.41c-2.92,4.18-15.23-2.41-25.64-.62,2.54-.26,3.37-2.28,2.68-1.83-14-1-28.74.47-50,1.37L524,11c-8.25-1.14-21.79-1-30.72-1.67-2.67,1-7.79.75-4.71,2.4-27.45-6.77-52.66,2.26-77-3.4,2.92,0,7-.82,4.66-.87l-20.86.59c1.62,1.88,2.71,1.17,7.06,2.7-2.66,1-8.56,1.77-13.72,1.67,9.4-1,0-3-4-4.09.67.58-.73,1.18-.4,1.76-10.82-3.5-1.9,3.68-16.72,1.17l.81-.95c-5.57.38-10.72,1.56-16.72,1.16-2.44-2.19,5.95-.88,6.36-2.63-8.42,0-16.7,3.72-24.28,1.43,3.58-.52,8.73-.43,12.32-.95-8.25-2.68-9.23-2.06-15.39-2.58l.61.07L317,5.39l3.62.76c-10.66,5.36-21.49.58-35.77,3.94,13.88-3.17,2.32-1.95,3.43-4.35-3.61-.75-9.11-1.61-7.53-2.26-6.75,1.82-11.17-1.77-20.7.9-.41-.79-7.18-.22-5.63-2.15-8.74.44,2,1.4,1.28,2.36C242.21,7,224.16.72,204.74,4,188,5.15,184.88,7.72,169.37,8.72,164.17,7.37,173.71,6,173.71,6A84.77,84.77,0,0,0,151,5.46c1.62-.65,0-1.26-2.43-2.18-6.37.07-4.32,2.75-12.7,1.43a23,23,0,0,1,6.43-3c-7.53.56-15,1.87-22.77,2.42-2-1.4,4.74-2,7.5-2.8-8.76.43-22.68.77-25.42,2.87l5.59.88c-3.19,0-1.6-1.88.76-2.23,7.52-1.53,10.79,1,11.2,1.76L113.6,5c5.59,4.69,22.26-.29,33.4.2l-4.71,3.24,11.49-2.53c2.42.91,4,2.8-1.47,3.19,8,1.81,7.1-1,13.93.93.75.3.4.46-.3.57l7.83-.83c-1.55.67,1.25,2.38-3.54,1.8,14,2.2,22.66-2,27.89.59l-1.18.18c19.47-.73,1.93-2.41,16.58-5l9.7,6.23,2-2.41c2,.13,6,.4,5.21,1.36,7.51-1.52-1.25-1.09,3.12-2.58,9.61,2.42,26.65-.5,28.75,3.43,3.5-1.78-9.21-1.62,1.13-2.7,2.86,4.24,11.93-.48,20.72,1.62-2.75,2.11-11.09.8-2.3,2.9,5.4-3.54,17.17,1.15,24.62.6.41-2.9,16.21-.89,28.72-1.6-.81,1,23.47,2.07,35.06,3.36l-.35.48c2.31-2.89,14.28-2.1,23-2.53-.38,1.75-2,2.41-6.71,3.1l8.21.16c1.95-.91,4.52-1.35,9.85-1.58l-2.11,2.15c10.92.1,22-2.14,36.06-.39.83-2-11.06-5.93,3.82-7,.53,1.12,1,3-2.85,3.4,1.27-.12,4.56-.83,7.11-.31l-6,1.75c6.38.94,3.38-1.49,8.49-1.22-.13,1.58,3.76,1.21,3,2.45-1.31.12-4.45-.75-6.42-.17,5.76.4,12.72,1.48,15,2.72-.49-.91,0-2.12,4.27-2.24,10.92.1,3.7,2,10.05,2.91,2.67-1,9.61.24,9.84-2.12,3.19.08,3.76,1.19,5,1.85,5.67-.92,26.4.24,20.09-2.4l-1.45-.2a3.939,3.939,0,0,0,.93-.08h0c18.56-2,38.44,2.11,56.84,1.47v.79c11-.68,24.43,0,32.3-1.58,3.24.07,7.63,1.6,6.22,2.51,8.4-.42,9.36-1.29,21.44.26-8.46,1.21,2.89,1.28-8.66.83,10.88.91,13.33,2.22,25.07.3-4,1.94,8.15,2.71,13.34,2.21L648,23.5c5.82-.18,10.91.11,16.08.38l-2.85,2.61c22.23,3.68,40.32-4.7,57.19,1.06,5.93-1.74-12.09-1.55-6.77-3.62,10.25.56,20.86,4.6,24.07,4.67,14,1.76,13.19-3.62,27.87-2.32-1.86-1-3.59-3.55,7.42-4.22,10.26.55,12.53,4.23,6,4.86-2.46,0-3.64-.29-3.53-.61-3.33.28-7.69.6-3.64,1.71l1.35-.93c5.07,1.08,19.19,1.26,15.84,2.75,7.78-.75,3.35-1.49-2.38-2.1,13.13,1.64,20.56.46,34.09,1.66-2.14-.57-4.1-1.73-2-1.67,19.85,1.57,8.79-1.63,22.27-1.77,7.62,1.6-2.82,3.4,10.76,2.46,8.26,1.15,1.71,2.55-1.6,3.26,12.39-1.58,23,1.67,30.1,2.15l-6.52.63a83.578,83.578,0,0,1,10.33-.23l-3.68-2c3.82.41,7,.48,7,1.27,4-1.16-2.95-3.22,4.9-4.76,5.07,1.07,15.53-.72,17.24,1.83-16-1.18,1.71,2.57-11.85,2.7a48.79,48.79,0,0,1,9.63.24c.57.29-.55.51-1.6.63,15.28,2.57,7.11-2.7,23-2.32-2.05,1.38,3.63,2.77,6.22,2.51-6.4-.15-3-2.43,2.88-3.39,10.17,1.31,11.09-.6,16.42-.37L946.16,30c2.09-1.38,7.18-1.09,14.29-1.39.59,1.12-6.46.63-3.94,1.17,4-1.17,8.41-.44,13.23.41,2.42.42,4.93.87,7.52,1.13,1.3.12,2.62.2,4,.2.67,0,1.34,0,2-.06h.5l.26-.05.53-.12c1.21.5.94,1.16.76,1.79s-.38,1.21,0,1.54a4.77,4.77,0,0,1,2.47-.44,9.33,9.33,0,0,1-1.27,2.65,2.82,2.82,0,0,0-.42,1,2.124,2.124,0,0,0,0,.26.36.36,0,0,1,0,.12v1.11c-.06,1-.08,2.12-.07,3.33,2.3-3.5,1.91-4.2,2.76,5.07l.25-5.33.12-2.66.06-1.28v-.57q-.09-2.23-.24-3.93A6.994,6.994,0,0,1,990,36a15.9,15.9,0,0,1,.52,1.6l.25.94c.06.49.11,1.13.16,1.69l.11-1.06.05-.54V37.08c0-.82,0-1.59-.06-2.29a23.927,23.927,0,0,1-.1-3.48,4.89,4.89,0,0,1-.79-.07,13.87,13.87,0,0,0,1.36-.44c.84,1.68.61,1.82,2.38-1.35a17.151,17.151,0,0,0-1.55,5.12,13.624,13.624,0,0,0-.09,2.12v2.33c0,4.56.16,9.3-1.36,14.25l-4.66-.83c-3.78,15-.58,27.25-3.94,46.84L984,93c1.57,2.85-1.09,12.2-1,18.67-1.51-.76-2.52,3.16-3.8,5.78,1.2-.2-1.7,14.42,1.23,16.56l-3,8.58c-2.61,15.82,2.46,18.66.23,33.91-1.19-4.8-3.07,2-3.16-8.36-.58,5.11-1.38,9.68-.3,9.88-1.31,2.87.55,14.4-1.46,18.94.45,2.23,2,3.11,1.25,8.84-.39.59-.77-.11-.77-.11.77.11.06,9.1,2.35,4.28-6.64,15.19-4.51,44-10.24,57.27-.71,11.21-1.69,24.71-2.7,34.84-.39-.7-.78-.11-.4-2-3,13.8,3.56,9.08.17,24.8-3.44,7.84-.44-8.59-2-3.64-5.41,1.63-1.42,19.26-5.62,29.62v-2.62c-2.66,8-.25,20.16-2.1,33.48,0,0-.38-.7-.77-.17,1.62,9.43.58,26.82-.11,39.75-1.58-4.22-.42-6-2.75-3.75-.34,5.8,3.49-1.32,2.79,10.24-1.52,3.62-3.41,11.81-5.72,12.66l1.08-10.86c-3.45,5.25-1.45,14.05-2.58,19.71l-1.16-.86c-1.43,16.66,1.66,17.24-.54,35.08l1.15-1.75c2,10.11-2.65,8-1.43,18l-3.46,2.6c0,6.52.53,22.89-.16,34.51-1.6-6.8-1.3-20.45-1.75-29-.73,6.39-2.17,21.73-1,25.22,0-2.6-.43-5.93.34-8.42q2.4,12.16.21,31.27c-1.61-.81-2.73,1.33-3.62,5q-.33,1.39-.63,3.06c-.15.62-.28,1.22-.4,1.87-.24,1.28-.44,2.65-.65,4-1.2,0-2.41-.08-3.56-.15a14.656,14.656,0,0,1-1.66-.14l-.84-.09-1.54-.11c-4-.31-7.44-.87-9.54-1.92-22.62,2.48-44.93-.53-71.31.09,9.41,4.67-7.7.21-6,5.08-6.14.38-8.48.32-9,0L809.26,570c-4.42-1.38,5.84-1.14,5.26-2.23-13.46-.25-5.66-2-14.58-3.23,1.84,1.73-4.65,2.55-12.33,2l10.82,2.15c-18.77,2.78-16.29-4-35.21-1.19l6-1.6c-9.72,1-35.88.32-45.37,4.34-1.73-.54-4-1.86.26-2.26-23.24-.36-51.69,4.69-69.78,2.44l1.75-1.21c-4.33.39-7.52,2.32-13,1.17.27-.5,1.73-1.21-.28-1.26-2.29.43-11.49,2.21-17.25,1.57l4.9-1.4c-22.68-1.34-34.76,3.62-53.76,4.62,0-3.52-17.83-4.49-26.74-5l.3-.5c-26.4-.18-44.81,3.35-69.24,5-15.21-3.68-51.42-1.1-75.82-3,3.73.61-.58,2.75-4.92,3.15-5.73-.66-15.79,2.59-14.92-.64h2.05c-4.35-3.13-16.1-2.17-25.29-2.17L360.66,575c-24.08-5.91-62.92,2.87-76.08-2.51-5.78,1.12-13,1.17-18.7,2.29l.29-2.27c-16.07-.42-24.09-.63-43.94.1l4-1.66c-11.2,0-14.07,6.67-24.4,6.9l-3.14-3.35c-19.54.25-39.34-2.53-58.61.72.31-.49.88-1.48,4-1.64-9.2,0-35.6-1.95-32.21,2.66-.26-3-20.16-.1-30.7,1.34l1.62-2.25c-8.88,2.94-9.15,3.72-21.58,4.63-3-.26-2.6-1.76,1.32-1.23-9.83-1.07-7.63,2.19-19.55,1.11l4.42-1.46c-10.1-.08-9.29.68-14.84,2.39a37.228,37.228,0,0,1-5.69.32H25.26a4.753,4.753,0,0,1-1.17-.09c-.74-.07-1.45-.16-2.1-.28a7.611,7.611,0,0,1-2.88-1c-.57-.4-.68-.86-.34-1.37a5.792,5.792,0,0,1-1.07.55c-.56.07-1.08-.41-1.36-1.5a10.3,10.3,0,0,1,.09-4.47c.81-.54,1.18.7,1.38,1.19.14-.6.26-1.15.35-1.67l.13-.76c0-.07.05-.38.07-.6l.08-.7c.19-1.86.3-3.6.37-5.27.13-3.33.07-6.32,0-9.14-.1-5.65-.18-10.63,1.38-16.34.76-.18,1.19-.9,1.49-1.84-1.15,13.37-2.14,24.13-2.22,23.11,2.05.17,3.28-10.61,5.42-1.78-.84-8.8-3-23.91-1.18-34.36a5.221,5.221,0,0,1,.82-1.34l.15,1.11a26.7,26.7,0,0,0,.21-6.68c.6-3.34,1-5.45,1.32-8.68,1.8-1.11,1.92-12.32,2.44-17.7-2.28.27-1.35-6.76-3.73-.3.23-.84.18,1,0,4.63a20.78,20.78,0,0,0,.05,2.32l-.17-.39c-.22,3.54-.54,8.16-.93,13.41-.8-4.35-1.39-8.88.33-14.73-1.21-2.89-2.45-6.05-3-7.82,3.72-7.12,6.57-21.2,8.65-23,.08-16.55,2.32-38.83-1-49.51-.16-4.73,1.64-5.28,2.45-7,.2,2.74-.12,5.94.36,7.46-.32-9.44,1.83-27.75-.93-30.22,2.29-11.68,2.17,6.84,3-9.39l.73,2.26c7.29-31.49-3.31-52.42,5.6-87.26-.57,2.42-.84,3.63-1.38,4.09,5.94-40.07,4.24-83.21,11.69-122.61,1.77-11.23,0-12.61-.88-19.62l2.61-2.25-1.82-12c-.68-16.89,8.25-28.47,6.13-49.95l-1.85,2.6c.92-7.58,1-24.16,2.76-22.73a6.82,6.82,0,0,1-.39-5.54l1.27-.13-.64-18.84c2.09-14.4,4.82,2.67,6.78-18.43.15-7.89-1.86-22.66-2.94-19.78-.32,3.16-1.44,8-2.72,8.17L58.61,7.6c-3.61-1.6-7-7.43-11,10l1.27,12.46-2.12,3.81.73-10.34c-2.17,5.72-1,9.56-.28,13.81a9.725,9.725,0,0,0-2.41,5l2.57,12.34C45.81,56,44.94,49,43.48,57.05c1.19,5.78,3.7-5.15,4,4.29-2.17,5.74-3.4,3.91-2.52,10.92-1,.89-1.53-.62-1.72-3.38.64,6.23-.84,16.28.88,19.61-2.58,6-1.14,20.77-4.61,19.88.69,2,1.88,11,1.57,16.69-3.37-10.64-2,21.09-6.25,18,3.16,7.93-.56,27.68.45,41.35a7.21,7.21,0,0,1-.44-3.48c-.93,7.57-2.25,9.69-3.36,14.52,3,1.23,2.8,13.12,4.21,19.66-3.78,9.07-3.21-6-6.35-3.27,2.57-.26,1.22,16.4,3.58,13.4-2.44,7-1.4,6.07-4.29,9.53,3.81,1.56.12,6.68,2.05,12.79-2.77,10.15-3.88,2.36-3.61,13.78C25.45,266.63,24.89,256.45,24.89,256.45Zm-15.12,270h0l.32-5.57ZM8,549.05c.31-2.75.61-6.18.89-9.81.83-.73,1.56.19,1.34,2.46C9.78,540.42,8.9,545.73,8,549.05Zm19.42-46.63c0,3.61-.51,4.77-1,5.23.1-1.7.18-3.68.24-6.29-.07-.11-.15-.33-.24-.45a3.52,3.52,0,0,1,.97,1.51Z" fill="url(#linear-gradient)"></path><path id="Path_29" data-name="Path 29" d="M25,495.74a10.525,10.525,0,0,1,0-1.49c-.26.71-.48,1.4-.68,2.1.21.45.41.92.6,1.32Z" fill="url(#linear-gradient)"></path><path id="Path_30" data-name="Path 30" d="M509.59,18.59l.47.06a3.659,3.659,0,0,1-1-.34,3.85,3.85,0,0,1,.53.28Z" fill="url(#linear-gradient)"></path><path id="Path_31" data-name="Path 31" d="M289.06,592.68l-.04-.57-1.97.52Z" fill="url(#linear-gradient)"></path><path id="Path_32" data-name="Path 32" d="M384.66,8.34A3.84,3.84,0,0,0,383,7.73a4.71,4.71,0,0,0,1.66.61Z" fill="url(#linear-gradient)"></path><path id="Path_33" data-name="Path 33" d="M330.64,6.75l-7.62-1C326.31,6.31,328.72,6.58,330.64,6.75Z" fill="url(#linear-gradient)"></path><path id="Path_34" data-name="Path 34" d="M289.12,4.79a2.41,2.41,0,0,0-.83,1h.08Z" fill="url(#linear-gradient)"></path><path id="Path_35" data-name="Path 35" d="M949.68,15.5a11.939,11.939,0,0,0,1.61-.07C955.05,15.07,952.5,15.19,949.68,15.5Z" fill="url(#linear-gradient)"></path><path id="Path_36" data-name="Path 36" d="M753,16.78c2.09-.36,4.15-.72,6.34-.93C755.86,15.6,753.14,15.5,753,16.78Z" fill="url(#linear-gradient)"></path><path id="Path_37" data-name="Path 37" d="M990.48,196.34h0c-.05.47-.09.88-.15,1.35Z" fill="url(#linear-gradient)"></path><path id="Path_38" data-name="Path 38" d="M768.49,16.07a36.511,36.511,0,0,0-9.13-.22,56.759,56.759,0,0,0,9.13.22Z" fill="url(#linear-gradient)"></path><path id="Path_39" data-name="Path 39" d="M109.09.13l-2-.13a.423.423,0,0,1-.24.36Z" fill="url(#linear-gradient)"></path><path id="Path_40" data-name="Path 40" d="M106.85.36l-2.23.22a4.92,4.92,0,0,0,2.23-.22Z" fill="url(#linear-gradient)"></path><path id="Path_41" data-name="Path 41" d="M99.93,1.05l4.69-.47C103,.54,101,.43,99.93,1.05Z" fill="url(#linear-gradient)"></path><path id="Path_42" data-name="Path 42" d="M164.07,2.28l.64-.8a1.07,1.07,0,0,0-.64.8Z" fill="url(#linear-gradient)"></path><path id="Path_43" data-name="Path 43" d="M180.78,2.39c-4-.27-10-1.94-15.54-1.55l-.53.64C167.35.32,177,3.68,180.78,2.39Z" fill="url(#linear-gradient)"></path><path id="Path_44" data-name="Path 44" d="M250.33,13.87l-14-.93c2.43.92,5.63,2.15-.75,2.23C253.19,18.12,232,13.15,250.33,13.87Z" fill="url(#linear-gradient)"></path><path id="Path_45" data-name="Path 45" d="M293.73,16c-7.53.25.06,1.26-.35,1.75C298.17,17.06,299.33,16.89,293.73,16Z" fill="url(#linear-gradient)"></path><path id="Path_46" data-name="Path 46" d="M607.52,22.36l-.8,2C612.53,24.22,606.79,23.6,607.52,22.36Z" fill="url(#linear-gradient)"></path><path id="Path_47" data-name="Path 47" d="M667.72,13l-5.62-1.38-2.72,1.82Z" fill="url(#linear-gradient)"></path><path id="Path_48" data-name="Path 48" d="M702.86,28.29l-2.54.24,9.69-.55Z" fill="url(#linear-gradient)"></path><path id="Path_49" data-name="Path 49" d="M964.13,254.86l2.69-1.46C966.81,249.45,964.08,248.32,964.13,254.86Z" fill="url(#linear-gradient)"></path><path id="Path_50" data-name="Path 50" d="M941.64,481.32c-1.53,2.33-3,8.6-2.24,12.66C940.13,488.91,941.67,484,941.64,481.32Z" fill="url(#linear-gradient)"></path><path id="Path_51" data-name="Path 51" d="M349.22,571.88l4.57-.89-8.62.79Z" fill="url(#linear-gradient)"></path></g></svg> 