<?xml version="1.0" encoding="UTF-8"?> <svg xmlns="http://www.w3.org/2000/svg" viewBox="0 0 151 151"><defs><style>.cls-1{fill:#8900fc;}</style></defs><title>Ciode Icon Searchstack</title><g id="Layer_2" data-name="Layer 2"><g id="Layer_1-2" data-name="Layer 1"><path class="cls-1" d="M41.52,41.52a6.27,6.27,0,0,0-6.26,6.27V98.48l6.26-6.27V66.6h69v37.61h-57l-6.27,6.27h69.5V47.79a6.27,6.27,0,0,0-6.27-6.27Zm3.14,9.4a3.14,3.14,0,1,1-3.14,3.14A3.14,3.14,0,0,1,44.66,50.92Zm12.54,0a3.14,3.14,0,1,1-3.14,3.14A3.14,3.14,0,0,1,57.2,50.92Zm9.4,0h43.88v6.27H66.6ZM97.94,72.86a6.28,6.28,0,0,0-6.26,6.28c0,.13,0,.26,0,.39l-9.78,6.52a6.2,6.2,0,0,0-2.77-.65A6.32,6.32,0,0,0,75,87l-8.52-2.84A6.26,6.26,0,1,0,54.28,87L36.17,105.13a3.14,3.14,0,1,0,4.35,4.52l.09-.09,18.1-18.11a6.33,6.33,0,0,0,1.62.22,6.22,6.22,0,0,0,4.15-1.58L73,92.93a6.26,6.26,0,0,0,12.4-1.27c0-.13,0-.26,0-.39l9.78-6.52a6.2,6.2,0,0,0,2.77.65,6.27,6.27,0,1,0,0-12.54Z"></path><path class="cls-1" d="M75.5,0a75.5,75.5,0,0,0,0,151h62.92A12.58,12.58,0,0,0,151,138.42V75.5A75.6,75.6,0,0,0,75.5,0Zm0,138.42A62.92,62.92,0,1,1,138.42,75.5,62.83,62.83,0,0,1,75.5,138.42Z"></path></g></g></svg> 