<?xml version="1.0" encoding="UTF-8"?> <svg xmlns="http://www.w3.org/2000/svg" viewBox="0 0 151 151"><defs><style>.cls-1{fill:#8900fc;}</style></defs><title>Code Icon Searchstack</title><g id="Layer_2" data-name="Layer 2"><g id="Layer_1-2" data-name="Layer 1"><path class="cls-1" d="M75.5,0a75.5,75.5,0,0,0,0,151h62.92A12.58,12.58,0,0,0,151,138.42V75.5A75.6,75.6,0,0,0,75.5,0Zm0,12.58A62.92,62.92,0,1,1,12.58,75.5,62.83,62.83,0,0,1,75.5,12.58Zm6,18.79a6.29,6.29,0,0,0-5.91,5.35L63,112.22a6.29,6.29,0,0,0,12.37,2.32,2,2,0,0,0,0-.26L88,38.78a6.29,6.29,0,0,0-5.07-7.31A6.22,6.22,0,0,0,81.5,31.37ZM50.21,50.26a6.28,6.28,0,0,0-5.11,2.88L32.52,72a6.29,6.29,0,0,0,0,7L45.1,97.86a6.29,6.29,0,1,0,10.58-6.81l-.11-.16L45.31,75.5,55.57,60.11a6.29,6.29,0,0,0-5.36-9.85Zm50.38,0a6.29,6.29,0,0,0-5.16,9.85L105.69,75.5,95.43,90.89A6.29,6.29,0,0,0,105.79,98a1.63,1.63,0,0,0,.11-.17L118.48,79a6.29,6.29,0,0,0,0-7L105.9,53.14A6.26,6.26,0,0,0,100.59,50.26Z"></path></g></g></svg> 