<?xml version="1.0" encoding="UTF-8"?> <svg xmlns="http://www.w3.org/2000/svg" viewBox="0 0 1382 700.06"><defs><style>.cls-1{fill:#f3f6e6;}.cls-2{fill:#383a48;}.cls-3{fill:#e06a63;}.cls-4{fill:#f6e049;}.cls-5{fill:#7fd6c2;}.cls-6{fill:#7600e8;}.cls-7{fill:none;}.cls-8{fill:#f64c49;}</style></defs><title>design svg</title><g id="Layer_2" data-name="Layer 2"><g id="Layer_1-2" data-name="Layer 1"><polygon class="cls-1" points="814 563.36 1374 453.26 1374 5.06 814 5.06 814 563.36"></polygon><path class="cls-2" d="M814,568.36a5.39,5.39,0,0,1-3.2-1.1,4.84,4.84,0,0,1-1.8-3.9V5.06a5,5,0,0,1,5-5h560a5,5,0,0,1,5,5v448.2a5,5,0,0,1-4,4.9L815,568.26C814.7,568.26,814.3,568.36,814,568.36Zm5-558.3v547.2l550-108.1V10.06Z"></path><path class="cls-1" d="M657,637.06H963.39l42.9-14.07,28.13-95.93h264.34l-74.09-186.23a86.76,86.76,0,0,0-86.77-86.77H657Z"></path><path class="cls-2" d="M963.42,642.06H657a5,5,0,0,1-5-5v-383a5,5,0,0,1,5-5h480.91a91.8,91.8,0,0,1,91.67,90.77l73.8,185.34a5.22,5.22,0,0,1-.5,4.69,4.9,4.9,0,0,1-4.09,2.2H1038.16l-27,92.32a5.05,5.05,0,0,1-3.21,3.31L965,641.76A5,5,0,0,1,963.42,642.06ZM662,632.06H962.57l39.58-13,27.42-93.43a5.05,5.05,0,0,1,4.82-3.61h257.19l-71.42-179.4a5.84,5.84,0,0,1-.4-1.8,81.91,81.91,0,0,0-81.8-81.8H662Z"></path><path class="cls-1" d="M1055,254.06H579.8a93.8,93.8,0,0,0-93.8,93.8v334.2H604.87l38.63-45H962"></path><path class="cls-2" d="M605.12,687.06H486a5,5,0,0,1-5-5V254.33a5.27,5.27,0,0,1,5.27-5.27h570.65a.31.31,0,0,1,.2.09c4.52,4.61,1.62,9.91-2.72,9.91H495.74A4.74,4.74,0,0,0,491,263.8V677.06H602.6l37.14-43.31a4.84,4.84,0,0,1,3.78-1.69H962a5.27,5.27,0,0,1,5.2,4.63,5,5,0,0,1-5,5.37H646l-37.11,43.3A5.17,5.17,0,0,1,605.12,687.06Z"></path><path class="cls-2" d="M1055.37,551.19a5,5,0,0,1-5.37-5V340.72c0-48.87,38.31-89.78,87.14-91.56A90.6,90.6,0,0,1,1231,339.6V472.09a5.28,5.28,0,0,1-4.63,5.2,5,5,0,0,1-5.37-5V340.6c0-43.49-34.1-79.89-77.55-81.45A80.58,80.58,0,0,0,1060,339.6V546A5.28,5.28,0,0,1,1055.37,551.19Z"></path><path class="cls-1" d="M1374,225.06V453a74,74,0,0,1-74,74h0a74,74,0,0,1-74-74V338.06"></path><path class="cls-2" d="M1298.5,532.39a79.06,79.06,0,0,1-77.5-79V337.81a5.28,5.28,0,0,1,4.63-5.2,5,5,0,0,1,5.37,5V453.3a69.08,69.08,0,0,0,70.17,69C1339,521.66,1369,490,1369,452.2V224.41a5.28,5.28,0,0,1,4.63-5.2,5,5,0,0,1,5.37,5V452.31C1379,496.7,1342.88,533.21,1298.5,532.39Z"></path><rect class="cls-2" x="814" y="5.06" width="560" height="156"></rect><path class="cls-2" d="M1374,166.06H814a5,5,0,0,1-5-5V5.06a5,5,0,0,1,5-5h560a5,5,0,0,1,5,5v156A5,5,0,0,1,1374,166.06Zm-555-10h550v-146H819Z"></path><path class="cls-1" d="M233,549.06a133,133,0,0,1-133,133H610.35s53.08-7.51,70.91-45.27S783.51,409.06,783.51,409.06H337.3A104.3,104.3,0,0,0,233,513.36v35.7Z"></path><path class="cls-2" d="M610.34,687.06H10.81a5.28,5.28,0,0,1-5.2-4.63,5,5,0,0,1,5-5.37h89.6A127.8,127.8,0,0,0,228,549.26v-35.9a109.3,109.3,0,0,1,109.3-109.3H783.39a5,5,0,0,1,4.2,2.3,5.12,5.12,0,0,1,.4,4.81c-.8,1.9-84.62,190.47-102.24,227.82-18.83,39.76-72.41,47.77-74.71,48.17A1.48,1.48,0,0,0,610.34,687.06Zm-458.74-10H609.72c4.31-.7,51-9,66.78-42.45,15.62-33.14,83.6-185.81,99-220.55H337.41A99.53,99.53,0,0,0,238,513.47V549A138.21,138.21,0,0,1,151.6,677.06Z"></path><path class="cls-1" d="M1055,375.06V544.5A92.48,92.48,0,0,1,962.5,637h0A92.48,92.48,0,0,1,870,544.5V496.16a86.46,86.46,0,0,0-86.5-86.5h0a86.46,86.46,0,0,0-86.5,86.5V583a99.35,99.35,0,0,1-99.3,99.3s61.3-2.5,83.3-45.2H962"></path><path class="cls-2" d="M598,687.26a5.29,5.29,0,0,1-4.94-3.24,5,5,0,0,1,4.45-6.76c.4,0,25.2-1.3,48.1-13.1A94.23,94.23,0,0,0,692,583v-86.8a91.5,91.5,0,0,1,183,0V544.5a87.5,87.5,0,0,0,175,0V375.67a5.27,5.27,0,0,1,4.63-5.2,5,5,0,0,1,5.37,5v169.1a97.63,97.63,0,0,1-97.5,97.5H684c-7.4,12.9-19,23.5-34.2,31.3A103.51,103.51,0,0,1,598,687.26Zm91.71-55.2H919.5a97.64,97.64,0,0,1-54.5-87.5v-48.4a81.5,81.5,0,0,0-163,0V583A102.73,102.73,0,0,1,689.7,632.06Z"></path><circle class="cls-3" cx="878.36" cy="77.3" r="20.3"></circle><circle class="cls-4" cx="938.96" cy="77.3" r="20.3"></circle><circle class="cls-5" cx="999.66" cy="77.3" r="20.3"></circle><circle class="cls-2" cx="893.46" cy="621.2" r="5"></circle><circle class="cls-2" cx="868.76" cy="571.9" r="5"></circle><circle class="cls-2" cx="868.76" cy="596.6" r="5"></circle><circle class="cls-2" cx="868.76" cy="621.2" r="5"></circle><circle class="cls-2" cx="844.06" cy="448.6" r="5"></circle><circle class="cls-2" cx="844.06" cy="473.2" r="5"></circle><circle class="cls-2" cx="844.06" cy="497.9" r="5"></circle><circle class="cls-2" cx="844.06" cy="522.6" r="5"></circle><circle class="cls-2" cx="844.06" cy="547.2" r="5"></circle><circle class="cls-2" cx="844.06" cy="571.9" r="5"></circle><circle class="cls-2" cx="844.06" cy="596.6" r="5"></circle><circle class="cls-2" cx="844.06" cy="621.2" r="5"></circle><circle class="cls-2" cx="819.46" cy="423.9" r="5"></circle><circle class="cls-2" cx="819.46" cy="448.6" r="5"></circle><circle class="cls-2" cx="819.46" cy="473.2" r="5"></circle><circle class="cls-2" cx="819.46" cy="497.9" r="5"></circle><circle class="cls-2" cx="819.46" cy="522.6" r="5"></circle><circle class="cls-2" cx="819.46" cy="547.2" r="5"></circle><circle class="cls-2" cx="819.46" cy="571.9" r="5"></circle><circle class="cls-2" cx="819.46" cy="596.6" r="5"></circle><circle class="cls-2" cx="819.46" cy="621.2" r="5"></circle><circle class="cls-2" cx="794.76" cy="423.9" r="5"></circle><circle class="cls-2" cx="794.76" cy="448.6" r="5"></circle><circle class="cls-2" cx="794.76" cy="473.2" r="5"></circle><circle class="cls-2" cx="794.76" cy="497.9" r="5"></circle><circle class="cls-2" cx="794.76" cy="522.6" r="5"></circle><circle class="cls-2" cx="794.76" cy="547.2" r="5"></circle><circle class="cls-2" cx="794.76" cy="571.9" r="5"></circle><circle class="cls-2" cx="794.76" cy="596.6" r="5"></circle><circle class="cls-2" cx="794.76" cy="621.2" r="5"></circle><circle class="cls-2" cx="770.06" cy="423.9" r="5"></circle><circle class="cls-2" cx="770.06" cy="448.6" r="5"></circle><circle class="cls-2" cx="770.06" cy="473.2" r="5"></circle><circle class="cls-2" cx="770.06" cy="497.9" r="5"></circle><circle class="cls-2" cx="770.06" cy="522.6" r="5"></circle><circle class="cls-2" cx="770.06" cy="547.2" r="5"></circle><circle class="cls-2" cx="770.06" cy="571.9" r="5"></circle><circle class="cls-2" cx="770.06" cy="596.6" r="5"></circle><circle class="cls-2" cx="770.06" cy="621.2" r="5"></circle><circle class="cls-2" cx="745.46" cy="423.9" r="5"></circle><circle class="cls-2" cx="745.46" cy="448.6" r="5"></circle><circle class="cls-2" cx="745.46" cy="473.2" r="5"></circle><circle class="cls-2" cx="745.46" cy="497.9" r="5"></circle><circle class="cls-2" cx="745.46" cy="522.6" r="5"></circle><circle class="cls-2" cx="745.46" cy="547.2" r="5"></circle><circle class="cls-2" cx="745.46" cy="571.9" r="5"></circle><circle class="cls-2" cx="745.46" cy="596.6" r="5"></circle><circle class="cls-2" cx="745.46" cy="621.2" r="5"></circle><circle class="cls-2" cx="720.76" cy="448.6" r="5"></circle><circle class="cls-2" cx="720.76" cy="473.2" r="5"></circle><circle class="cls-2" cx="720.76" cy="497.9" r="5"></circle><circle class="cls-2" cx="720.76" cy="522.6" r="5"></circle><circle class="cls-2" cx="720.76" cy="547.2" r="5"></circle><circle class="cls-2" cx="720.76" cy="571.9" r="5"></circle><circle class="cls-2" cx="720.76" cy="596.6" r="5"></circle><circle class="cls-2" cx="720.76" cy="621.2" r="5"></circle><circle class="cls-2" cx="696.06" cy="621.2" r="5"></circle><circle class="cls-2" cx="1242.76" cy="512.5" r="5"></circle><circle class="cls-2" cx="1218.16" cy="315.2" r="5"></circle><circle class="cls-2" cx="1218.16" cy="339.9" r="5"></circle><circle class="cls-2" cx="1218.16" cy="364.5" r="5"></circle><circle class="cls-2" cx="1218.16" cy="389.2" r="5"></circle><circle class="cls-2" cx="1218.16" cy="413.9" r="5"></circle><circle class="cls-2" cx="1218.16" cy="438.5" r="5"></circle><circle class="cls-2" cx="1218.16" cy="463.2" r="5"></circle><circle class="cls-2" cx="1218.16" cy="487.9" r="5"></circle><circle class="cls-2" cx="1218.16" cy="512.5" r="5"></circle><circle class="cls-2" cx="1193.46" cy="290.5" r="5"></circle><circle class="cls-2" cx="1193.46" cy="315.2" r="5"></circle><circle class="cls-2" cx="1193.46" cy="339.9" r="5"></circle><circle class="cls-2" cx="1193.46" cy="364.5" r="5"></circle><circle class="cls-2" cx="1193.46" cy="389.2" r="5"></circle><circle class="cls-2" cx="1193.46" cy="413.9" r="5"></circle><circle class="cls-2" cx="1193.46" cy="438.5" r="5"></circle><circle class="cls-2" cx="1193.46" cy="463.2" r="5"></circle><circle class="cls-2" cx="1193.46" cy="487.9" r="5"></circle><circle class="cls-2" cx="1193.46" cy="512.5" r="5"></circle><circle class="cls-2" cx="1168.76" cy="265.9" r="5"></circle><circle class="cls-2" cx="1168.76" cy="290.5" r="5"></circle><circle class="cls-2" cx="1168.76" cy="315.2" r="5"></circle><circle class="cls-2" cx="1168.76" cy="339.9" r="5"></circle><circle class="cls-2" cx="1168.76" cy="364.5" r="5"></circle><circle class="cls-2" cx="1168.76" cy="389.2" r="5"></circle><circle class="cls-2" cx="1168.76" cy="413.9" r="5"></circle><circle class="cls-2" cx="1168.76" cy="438.5" r="5"></circle><circle class="cls-2" cx="1168.76" cy="463.2" r="5"></circle><circle class="cls-2" cx="1168.76" cy="487.9" r="5"></circle><circle class="cls-2" cx="1168.76" cy="512.5" r="5"></circle><circle class="cls-2" cx="1144.16" cy="265.9" r="5"></circle><circle class="cls-2" cx="1144.16" cy="290.5" r="5"></circle><circle class="cls-2" cx="1144.16" cy="315.2" r="5"></circle><circle class="cls-2" cx="1144.16" cy="339.9" r="5"></circle><circle class="cls-2" cx="1144.16" cy="364.5" r="5"></circle><circle class="cls-2" cx="1144.16" cy="389.2" r="5"></circle><circle class="cls-2" cx="1144.16" cy="413.9" r="5"></circle><circle class="cls-2" cx="1144.16" cy="438.5" r="5"></circle><circle class="cls-2" cx="1144.16" cy="463.2" r="5"></circle><circle class="cls-2" cx="1144.16" cy="487.9" r="5"></circle><circle class="cls-2" cx="1144.16" cy="512.5" r="5"></circle><circle class="cls-2" cx="1119.46" cy="265.9" r="5"></circle><circle class="cls-2" cx="1119.46" cy="290.5" r="5"></circle><circle class="cls-2" cx="1119.46" cy="315.2" r="5"></circle><circle class="cls-2" cx="1119.46" cy="339.9" r="5"></circle><circle class="cls-2" cx="1119.46" cy="364.5" r="5"></circle><circle class="cls-2" cx="1119.46" cy="389.2" r="5"></circle><circle class="cls-2" cx="1119.46" cy="413.9" r="5"></circle><circle class="cls-2" cx="1119.46" cy="438.5" r="5"></circle><circle class="cls-2" cx="1119.46" cy="463.2" r="5"></circle><circle class="cls-2" cx="1119.46" cy="487.9" r="5"></circle><circle class="cls-2" cx="1119.46" cy="512.5" r="5"></circle><circle class="cls-2" cx="1094.76" cy="290.5" r="5"></circle><circle class="cls-2" cx="1094.76" cy="315.2" r="5"></circle><circle class="cls-2" cx="1094.76" cy="339.9" r="5"></circle><circle class="cls-2" cx="1094.76" cy="364.5" r="5"></circle><circle class="cls-2" cx="1094.76" cy="389.2" r="5"></circle><circle class="cls-2" cx="1094.76" cy="413.9" r="5"></circle><circle class="cls-2" cx="1094.76" cy="438.5" r="5"></circle><circle class="cls-2" cx="1094.76" cy="463.2" r="5"></circle><circle class="cls-2" cx="1094.76" cy="487.9" r="5"></circle><circle class="cls-2" cx="1094.76" cy="512.5" r="5"></circle><circle class="cls-2" cx="1070.16" cy="315.2" r="5"></circle><circle class="cls-2" cx="1070.16" cy="339.9" r="5"></circle><circle class="cls-2" cx="1070.16" cy="364.5" r="5"></circle><circle class="cls-2" cx="1070.16" cy="389.2" r="5"></circle><circle class="cls-2" cx="1070.16" cy="413.9" r="5"></circle><circle class="cls-2" cx="1070.16" cy="438.5" r="5"></circle><circle class="cls-2" cx="1070.16" cy="463.2" r="5"></circle><circle class="cls-2" cx="1070.16" cy="487.9" r="5"></circle><circle class="cls-2" cx="1070.16" cy="512.5" r="5"></circle><path class="cls-2" d="M1054.63,551.19A5.28,5.28,0,0,1,1050,546V339.6a89.85,89.85,0,0,1,26.5-64,91.27,91.27,0,0,1,19.3-14.7,4.69,4.69,0,0,1,4.5-.22,5.07,5.07,0,0,1,2.81,3.15,5.14,5.14,0,0,1-2.51,5.87,79.89,79.89,0,0,0-18.94,15A81.69,81.69,0,0,0,1060,340.61V546.2A5,5,0,0,1,1054.63,551.19Z"></path><path class="cls-1" d="M384.3,157.66,214.6,1.36a5.13,5.13,0,0,0-3.4-1.3H5a5,5,0,0,0-5,5v388.2A59.64,59.64,0,0,0,36.9,449a61.84,61.84,0,0,0,24,5,60.1,60.1,0,0,0,41.7-17.1L384.4,165a5.14,5.14,0,0,0,1.5-3.7A4.84,4.84,0,0,0,384.3,157.66Z"></path><path class="cls-1" d="M1378.8,526.36a5.14,5.14,0,0,0-5.5,1.3c-29.1,32.5-74.2,36.3-122,40.4-46.8,3.9-95.2,8-128.1,41.5-61.8,62.7-101.1,67.6-196,79.4l-9.2,1.1c-4,.47-6.4,5.79-2.14,9.91a.29.29,0,0,0,.21.09h460.74a5.19,5.19,0,0,0,5.19-5.19V531.06A4.87,4.87,0,0,0,1378.8,526.36Z"></path><path class="cls-6" d="M1152.56,629.6a4.69,4.69,0,0,1-3.5-1.5L839.26,318.3a5,5,0,1,1,7.1-7.1L1156.16,621a5,5,0,0,1,0,7.1A5.44,5.44,0,0,1,1152.56,629.6Z"></path><line class="cls-7" x1="1276.46" y1="612.9" x2="1299.76" y2="636.3"></line><rect class="cls-2" x="1283.04" y="608.1" width="10" height="33" transform="translate(-64.4 1093.72) rotate(-45)"></rect><line class="cls-7" x1="1276.46" y1="636.3" x2="1299.76" y2="612.9"></line><rect class="cls-2" x="1271.78" y="619.57" width="33" height="10" transform="translate(-64.27 1093.98) rotate(-45)"></rect><line class="cls-7" x1="373.36" y1="288.1" x2="396.66" y2="311.5"></line><rect class="cls-2" x="379.95" y="283.3" width="10" height="33" transform="translate(-99.24 360.01) rotate(-45)"></rect><line class="cls-7" x1="373.36" y1="311.5" x2="396.66" y2="288.1"></line><rect class="cls-2" x="368.49" y="294.89" width="33" height="10" transform="translate(-99.29 360.06) rotate(-45)"></rect><line class="cls-7" x1="55.56" y1="120.6" x2="78.86" y2="143.9"></line><rect class="cls-2" x="62.16" y="115.83" width="10" height="33" transform="translate(-73.9 86.24) rotate(-45)"></rect><line class="cls-7" x1="55.56" y1="143.9" x2="78.86" y2="120.6"></line><rect class="cls-2" x="50.78" y="127.29" width="33" height="10" transform="translate(-73.84 86.32) rotate(-45)"></rect><path class="cls-2" d="M600.26,405.9,491,325.4a4.89,4.89,0,0,0-5.2-.4,5.2,5.2,0,0,0-2.76,4.5v80.2c.06,2.8,2.26,5,5.06,4.36l109.3,1h0a5,5,0,0,0,4.7-3.46A5.29,5.29,0,0,0,600.26,405.9Z"></path><path class="cls-6" d="M254.46,291.6l3.6-3.5a81.12,81.12,0,0,0-114.7-1.3,81.15,81.15,0,0,0-1.3,114.7l5-4.9L251,295.1h0l3.1-3,.4-.5Z"></path><path class="cls-2" d="M258.06,288.1l-3.6,3.5L149.16,394.5h0l-2.2,2.1-1.4,1.4h0l-3.6,3.5a81.15,81.15,0,0,0,116.1-113.4Z"></path><path class="cls-8" d="M569.3,161.06H198V6.06H569.3l84.1,58.4a23.27,23.27,0,0,1,0,38.2Z"></path><path class="cls-2" d="M569.3,166.06H198a5,5,0,0,1-5-5V6.06a5,5,0,0,1,5-5H569.3a5.21,5.21,0,0,1,2.9.9l84.1,58.4a28.16,28.16,0,0,1,0,46.4l-84.1,58.4A5.21,5.21,0,0,1,569.3,166.06Zm-366.3-10H567.7l82.9-57.5a18.19,18.19,0,0,0,0-30l-82.9-57.5H203Z"></path><circle class="cls-8" cx="211.46" cy="83.1" r="78.1"></circle><path class="cls-2" d="M211.46,166.2a83.1,83.1,0,1,1,83.1-83.1A83.22,83.22,0,0,1,211.46,166.2Zm0-156.2a73.1,73.1,0,1,0,73.1,73.1A73.19,73.19,0,0,0,211.46,10Z"></path><circle class="cls-2" cx="211.46" cy="83.1" r="37.5"></circle><path class="cls-2" d="M211.46,125.6A42.5,42.5,0,1,1,254,83.1,42.59,42.59,0,0,1,211.46,125.6Zm0-75A32.5,32.5,0,1,0,244,83.1,32.56,32.56,0,0,0,211.46,50.6Z"></path><path class="cls-2" d="M567.16,165a43.4,43.4,0,0,1-43.3-43.4c0-12.1,5.3-23.7,14.8-32.7,2.4-2.2,3.6-4.2,3.6-5.8,0-1.9-1.9-4.1-3.4-5.5-9.7-9-15-20.7-15-32.9a43.4,43.4,0,0,1,43.3-43.4,5,5,0,0,1,5,5,5,5,0,0,1-5,5,33.37,33.37,0,0,0-33.3,33.4c0,9.4,4.2,18.5,11.8,25.5,4.4,4.1,6.6,8.4,6.6,12.8s-2.2,8.8-6.8,13.1c-7.5,7.1-11.7,16.1-11.7,25.4a33.37,33.37,0,0,0,33.3,33.4,5.05,5.05,0,0,1,.1,10.1Z"></path><path class="cls-2" d="M631,49.2v69.1l20.7-13.7a25.23,25.23,0,0,0-.4-42.4Z"></path><path class="cls-2" d="M631,123.3a5.33,5.33,0,0,1-2.4-.6,5.09,5.09,0,0,1-2.6-4.4V49.2a5.09,5.09,0,0,1,2.6-4.4,4.92,4.92,0,0,1,5.1.2l20.4,13a30.28,30.28,0,0,1,.4,50.8l-20.8,13.7A5.3,5.3,0,0,1,631,123.3Zm5-65V109l13-8.6a20,20,0,0,0,9.1-17.1,20.3,20.3,0,0,0-9.4-16.9Z"></path><path class="cls-2" d="M528.86,50.06H279.67a5.26,5.26,0,0,1-5.19-4.63,5,5,0,0,1,5-5.37H528.65a5.27,5.27,0,0,1,5.2,4.63A5,5,0,0,1,528.86,50.06Z"></path><line class="cls-7" x1="529" y1="122.06" x2="279" y2="122.06"></line><path class="cls-2" d="M528.86,127.06H279.67a5.26,5.26,0,0,1-5.19-4.63,5,5,0,0,1,5-5.37H528.65a5.27,5.27,0,0,1,5.2,4.63A5,5,0,0,1,528.86,127.06Z"></path></g></g></svg> 