<?xml version="1.0" encoding="UTF-8"?> <svg xmlns="http://www.w3.org/2000/svg" viewBox="0 0 151 151"><defs><style>.cls-1{fill:#8900fc;}</style></defs><title>Marketing Icon Searchstack</title><g id="Layer_2" data-name="Layer 2"><g id="Layer_1-2" data-name="Layer 1"><path class="cls-1" d="M75.5,0a75.5,75.5,0,0,0,0,151h62.92A12.58,12.58,0,0,0,151,138.42V75.5A75.6,75.6,0,0,0,75.5,0Zm0,138.42A62.92,62.92,0,1,1,138.42,75.5,62.83,62.83,0,0,1,75.5,138.42Z"></path><path class="cls-1" d="M93.52,30.94a5.14,5.14,0,0,0-3.22,6.52l.12.37-32,23.08,11,32.48,39.45-1.1.12.38a5.15,5.15,0,0,0,9.75-3.3L100,34.16A5.14,5.14,0,0,0,93.52,30.94ZM52.14,63.75,32.69,72.58A6.86,6.86,0,0,0,29,81l4.81,14.23a6.86,6.86,0,0,0,8,4.48L50,97.85l11.15,20.64a3.41,3.41,0,0,0,4.11,1.62l2.06-.69a3.44,3.44,0,0,0,2.15-4.35L62.68,94.94h0Zm61-12.3,5.49,16.24,1.44-.93a6.84,6.84,0,0,0,2.79-8l-1-2.85a6.87,6.87,0,0,0-7.06-4.64Z"></path></g></g></svg> 