<?xml version="1.0" encoding="UTF-8"?> <svg xmlns="http://www.w3.org/2000/svg" viewBox="0 0 1476.1 720.77"><defs><style>.cls-1{fill:#4053fa;}.cls-2{fill:#7600e8;}.cls-3{fill:#f3f6e6;}.cls-4{fill:#383a48;}.cls-5{fill:#a14af4;}.cls-6{fill:#aac6fc;}.cls-7{fill:#f64c49;}</style></defs><title>Marketing svg</title><g id="Layer_2" data-name="Layer 2"><g id="Layer_1-2" data-name="Layer 1"><path class="cls-1" d="M1476.1,16.77a5,5,0,0,0-5-5h-97.9a5.05,5.05,0,0,0-4.6,3,4.92,4.92,0,0,0,.9,5.4l97.9,108.3a4.85,4.85,0,0,0,3.7,1.6,5.66,5.66,0,0,0,1.8-.3,5,5,0,0,0,3.2-4.7Z"></path><path class="cls-2" d="M1170.9,10.77H238.1a5,5,0,0,0-5,5v700a5,5,0,0,0,5,5h933a5,5,0,0,0,5-5v-700A5.33,5.33,0,0,0,1170.9,10.77Zm-4.8,234h-107v-107h107Zm0,117h-107v-107h107Zm0,116h-107v-107h107Zm-923-107h107v107h-107Zm0-116h107v107h-107Zm806,107h-107v-107h107Zm-116,0h-107v-107h107Zm-117,0h-107v-107h107Zm-117,0h-107v-107h107Zm-116,0h-107v-107h107v107Zm-116,0h-108v-107h107l1,106.33Zm-108,9h107v107h-107Zm117,0h107v107h-107Zm116,0h107v107h-107Zm117,0h107v107h-107Zm117,0h107v107h-107Zm116,0h107v107h-107Zm107-126h-107v-107h107Zm-116,0h-107v-107h107Zm-117,0h-107v-107h107Zm-117,0h-107v-107h107Zm-116,0h-107v-107h107v107Zm-116,0h-108v-107h107l1,106.73Zm-117,0h-107v-107h107Zm-107,243h107v107h-107Zm116,0h107v107h-107Zm117,0h107v107h-107Zm116,0h107v107h-107Zm117,0h107v107h-107Zm117,0h107v107h-107Zm116,0h107v107h-107Zm117,0h107v107h-107Zm107-360h-107v-107h107Zm-117,0h-107v-107h107Zm-116,0h-107v-107h107Zm-117,0h-107v-107h107Zm-117,0h-107v-107h107Zm-116,0h-107v-107h107v107Zm-116,0h-108v-107h107l1,107.13Zm-224-107h107v107h-107Zm0,583h107v107h-107Zm116,0h107v107h-107Zm117,0h107v107h-107Zm116,0h107v107h-107Zm117,0h107v107h-107Zm117,0h107v107h-107Zm116,0h107v107h-107Zm224,107h-107v-107h107Z"></path><path class="cls-3" d="M592.79,715.39a5.27,5.27,0,0,0-5.22-4.62c-59.2-.06-108.12-23.17-149.67-70.7-36.6-41.9-62.6-97.1-85.6-145.8-33.7-71.5-62.8-133.2-114.2-133.2a5,5,0,0,0-5,5v349.7a5,5,0,0,0,5,5H587.8A5,5,0,0,0,592.79,715.39Z"></path><path class="cls-3" d="M703.6,487.43a5.21,5.21,0,0,1-2.9-.9L535.8,370.77H412.1v-10H537.67a8.54,8.54,0,0,1,2.9,1.13L702,475.2l114.4-228a6,6,0,0,1,.9-1.3l114.83-115-1-115.13,10-.1,1,116.76a5.08,5.08,0,0,1-1.5,3.6l-116,116L708.1,484.63a5.18,5.18,0,0,1-3.2,2.6A6.88,6.88,0,0,1,703.6,487.43Z"></path><path class="cls-4" d="M471.41,553.77a4.72,4.72,0,0,1-3.2-1.2l-135.6-116a5,5,0,0,1,6.5-7.5l131.6,112.5L700.6,246.87a5.15,5.15,0,0,1,3.6-1.9,4.64,4.64,0,0,1,3.8,1.5l113,113,113-113,115.1-115V16.77a5,5,0,0,1,5-5h116.39a5.28,5.28,0,0,1,5.2,4.63,5,5,0,0,1-5,5.37H1059.1v111.8a4.69,4.69,0,0,1-1.5,3.5L941,253.47,824.4,370.07a5,5,0,0,1-7.1,0L705.1,257.47,475.41,551.87a4.74,4.74,0,0,1-3.4,1.9Z"></path><circle class="cls-4" cx="466.87" cy="268.7" r="5"></circle><circle class="cls-4" cx="466.87" cy="293.3" r="5"></circle><circle class="cls-4" cx="466.87" cy="318" r="5"></circle><circle class="cls-4" cx="466.87" cy="342.7" r="5"></circle><circle class="cls-4" cx="466.87" cy="367.3" r="5"></circle><circle class="cls-4" cx="442.27" cy="219.3" r="5"></circle><circle class="cls-4" cx="442.27" cy="244" r="5"></circle><circle class="cls-4" cx="442.27" cy="268.7" r="5"></circle><circle class="cls-4" cx="442.27" cy="293.3" r="5"></circle><circle class="cls-4" cx="442.27" cy="318" r="5"></circle><circle class="cls-4" cx="442.27" cy="342.7" r="5"></circle><circle class="cls-4" cx="442.27" cy="367.3" r="5"></circle><circle class="cls-4" cx="442.27" cy="392" r="5"></circle><circle class="cls-4" cx="442.27" cy="416.7" r="5"></circle><circle class="cls-4" cx="417.57" cy="194.7" r="5"></circle><circle class="cls-4" cx="417.57" cy="219.3" r="5"></circle><circle class="cls-4" cx="417.57" cy="244" r="5"></circle><circle class="cls-4" cx="417.57" cy="268.7" r="5"></circle><circle class="cls-4" cx="417.57" cy="293.3" r="5"></circle><circle class="cls-4" cx="417.57" cy="318" r="5"></circle><circle class="cls-4" cx="417.57" cy="342.7" r="5"></circle><circle class="cls-4" cx="417.57" cy="367.3" r="5"></circle><circle class="cls-4" cx="417.57" cy="392" r="5"></circle><circle class="cls-4" cx="417.57" cy="416.7" r="5"></circle><circle class="cls-4" cx="417.57" cy="441.3" r="5"></circle><circle class="cls-4" cx="392.87" cy="170" r="5"></circle><circle class="cls-4" cx="392.87" cy="194.7" r="5"></circle><circle class="cls-4" cx="392.87" cy="219.3" r="5"></circle><circle class="cls-4" cx="392.87" cy="244" r="5"></circle><circle class="cls-4" cx="392.87" cy="268.7" r="5"></circle><circle class="cls-4" cx="392.87" cy="293.3" r="5"></circle><circle class="cls-4" cx="392.87" cy="318" r="5"></circle><circle class="cls-4" cx="392.87" cy="342.7" r="5"></circle><circle class="cls-4" cx="392.87" cy="367.3" r="5"></circle><circle class="cls-4" cx="392.87" cy="392" r="5"></circle><circle class="cls-4" cx="392.87" cy="416.7" r="5"></circle><circle class="cls-4" cx="392.87" cy="441.3" r="5"></circle><circle class="cls-4" cx="392.87" cy="466" r="5"></circle><circle class="cls-4" cx="392.87" cy="490.7" r="5"></circle><circle class="cls-4" cx="368.27" cy="145.3" r="5"></circle><circle class="cls-4" cx="368.27" cy="170" r="5"></circle><circle class="cls-4" cx="368.27" cy="194.7" r="5"></circle><circle class="cls-4" cx="368.27" cy="219.3" r="5"></circle><circle class="cls-4" cx="368.27" cy="244" r="5"></circle><circle class="cls-4" cx="368.27" cy="268.7" r="5"></circle><circle class="cls-4" cx="368.27" cy="293.3" r="5"></circle><circle class="cls-4" cx="368.27" cy="318" r="5"></circle><circle class="cls-4" cx="368.27" cy="342.7" r="5"></circle><circle class="cls-4" cx="368.27" cy="367.3" r="5"></circle><circle class="cls-4" cx="368.27" cy="392" r="5"></circle><circle class="cls-4" cx="368.27" cy="416.7" r="5"></circle><circle class="cls-4" cx="368.27" cy="441.3" r="5"></circle><circle class="cls-4" cx="368.27" cy="466" r="5"></circle><circle class="cls-4" cx="368.27" cy="490.7" r="5"></circle><circle class="cls-4" cx="343.57" cy="120.7" r="5"></circle><circle class="cls-4" cx="343.57" cy="145.3" r="5"></circle><circle class="cls-4" cx="343.57" cy="170" r="5"></circle><circle class="cls-4" cx="343.57" cy="194.7" r="5"></circle><circle class="cls-4" cx="343.57" cy="219.3" r="5"></circle><circle class="cls-4" cx="343.57" cy="244" r="5"></circle><circle class="cls-4" cx="343.57" cy="268.7" r="5"></circle><circle class="cls-4" cx="343.57" cy="293.3" r="5"></circle><circle class="cls-4" cx="343.57" cy="318" r="5"></circle><circle class="cls-4" cx="343.57" cy="342.7" r="5"></circle><circle class="cls-4" cx="343.57" cy="367.3" r="5"></circle><circle class="cls-4" cx="343.57" cy="392" r="5"></circle><circle class="cls-4" cx="343.57" cy="416.7" r="5"></circle><circle class="cls-4" cx="343.57" cy="441.3" r="5"></circle><circle class="cls-4" cx="343.57" cy="466" r="5"></circle><circle class="cls-4" cx="343.57" cy="490.7" r="5"></circle><circle class="cls-4" cx="343.57" cy="515.3" r="5"></circle><circle class="cls-4" cx="318.87" cy="120.7" r="5"></circle><circle class="cls-4" cx="318.87" cy="145.3" r="5"></circle><circle class="cls-4" cx="318.87" cy="170" r="5"></circle><circle class="cls-4" cx="318.87" cy="194.7" r="5"></circle><circle class="cls-4" cx="318.87" cy="219.3" r="5"></circle><circle class="cls-4" cx="318.87" cy="244" r="5"></circle><circle class="cls-4" cx="318.87" cy="268.7" r="5"></circle><circle class="cls-4" cx="318.87" cy="293.3" r="5"></circle><circle class="cls-4" cx="318.87" cy="318" r="5"></circle><circle class="cls-4" cx="318.87" cy="342.7" r="5"></circle><circle class="cls-4" cx="318.87" cy="367.3" r="5"></circle><circle class="cls-4" cx="318.87" cy="392" r="5"></circle><circle class="cls-4" cx="318.87" cy="416.7" r="5"></circle><circle class="cls-4" cx="318.87" cy="441.3" r="5"></circle><circle class="cls-4" cx="318.87" cy="466" r="5"></circle><circle class="cls-4" cx="318.87" cy="490.7" r="5"></circle><circle class="cls-4" cx="318.87" cy="515.3" r="5"></circle><circle class="cls-4" cx="294.27" cy="96" r="5"></circle><circle class="cls-4" cx="294.27" cy="120.7" r="5"></circle><circle class="cls-4" cx="294.27" cy="145.3" r="5"></circle><circle class="cls-4" cx="294.27" cy="170" r="5"></circle><circle class="cls-4" cx="294.27" cy="194.7" r="5"></circle><circle class="cls-4" cx="294.27" cy="219.3" r="5"></circle><circle class="cls-4" cx="294.27" cy="244" r="5"></circle><circle class="cls-4" cx="294.27" cy="268.7" r="5"></circle><circle class="cls-4" cx="294.27" cy="293.3" r="5"></circle><circle class="cls-4" cx="294.27" cy="318" r="5"></circle><circle class="cls-4" cx="294.27" cy="342.7" r="5"></circle><circle class="cls-4" cx="294.27" cy="367.3" r="5"></circle><circle class="cls-4" cx="294.27" cy="392" r="5"></circle><circle class="cls-4" cx="294.27" cy="416.7" r="5"></circle><circle class="cls-4" cx="294.27" cy="441.3" r="5"></circle><circle class="cls-4" cx="294.27" cy="466" r="5"></circle><circle class="cls-4" cx="294.27" cy="490.7" r="5"></circle><circle class="cls-4" cx="294.27" cy="515.3" r="5"></circle><circle class="cls-4" cx="294.27" cy="540" r="5"></circle><circle class="cls-4" cx="269.57" cy="96" r="5"></circle><circle class="cls-4" cx="269.57" cy="120.7" r="5"></circle><circle class="cls-4" cx="269.57" cy="145.3" r="5"></circle><circle class="cls-4" cx="269.57" cy="170" r="5"></circle><circle class="cls-4" cx="269.57" cy="194.7" r="5"></circle><circle class="cls-4" cx="269.57" cy="219.3" r="5"></circle><circle class="cls-4" cx="269.57" cy="244" r="5"></circle><circle class="cls-4" cx="269.57" cy="268.7" r="5"></circle><circle class="cls-4" cx="269.57" cy="293.3" r="5"></circle><circle class="cls-4" cx="269.57" cy="318" r="5"></circle><circle class="cls-4" cx="269.57" cy="342.7" r="5"></circle><circle class="cls-4" cx="269.57" cy="367.3" r="5"></circle><circle class="cls-4" cx="269.57" cy="392" r="5"></circle><circle class="cls-4" cx="269.57" cy="416.7" r="5"></circle><circle class="cls-4" cx="269.57" cy="441.3" r="5"></circle><circle class="cls-4" cx="269.57" cy="466" r="5"></circle><circle class="cls-4" cx="269.57" cy="490.7" r="5"></circle><circle class="cls-4" cx="269.57" cy="515.3" r="5"></circle><circle class="cls-4" cx="269.57" cy="540" r="5"></circle><circle class="cls-4" cx="244.87" cy="96" r="5"></circle><circle class="cls-4" cx="244.87" cy="120.7" r="5"></circle><circle class="cls-4" cx="244.87" cy="145.3" r="5"></circle><circle class="cls-4" cx="244.87" cy="170" r="5"></circle><circle class="cls-4" cx="244.87" cy="194.7" r="5"></circle><circle class="cls-4" cx="244.87" cy="219.3" r="5"></circle><circle class="cls-4" cx="244.87" cy="244" r="5"></circle><circle class="cls-4" cx="244.87" cy="268.7" r="5"></circle><circle class="cls-4" cx="244.87" cy="293.3" r="5"></circle><circle class="cls-4" cx="244.87" cy="318" r="5"></circle><circle class="cls-4" cx="244.87" cy="342.7" r="5"></circle><circle class="cls-4" cx="244.87" cy="367.3" r="5"></circle><circle class="cls-4" cx="244.87" cy="392" r="5"></circle><circle class="cls-4" cx="244.87" cy="416.7" r="5"></circle><circle class="cls-4" cx="244.87" cy="441.3" r="5"></circle><circle class="cls-4" cx="244.87" cy="466" r="5"></circle><circle class="cls-4" cx="244.87" cy="490.7" r="5"></circle><circle class="cls-4" cx="244.87" cy="515.3" r="5"></circle><circle class="cls-4" cx="244.87" cy="540" r="5"></circle><circle class="cls-4" cx="220.27" cy="96" r="5"></circle><circle class="cls-4" cx="220.27" cy="120.7" r="5"></circle><circle class="cls-4" cx="220.27" cy="145.3" r="5"></circle><circle class="cls-4" cx="220.27" cy="170" r="5"></circle><circle class="cls-4" cx="220.27" cy="194.7" r="5"></circle><circle class="cls-4" cx="220.27" cy="219.3" r="5"></circle><circle class="cls-4" cx="220.27" cy="244" r="5"></circle><circle class="cls-4" cx="220.27" cy="268.7" r="5"></circle><circle class="cls-4" cx="220.27" cy="293.3" r="5"></circle><circle class="cls-4" cx="220.27" cy="318" r="5"></circle><circle class="cls-4" cx="220.27" cy="342.7" r="5"></circle><circle class="cls-4" cx="220.27" cy="367.3" r="5"></circle><circle class="cls-4" cx="220.27" cy="392" r="5"></circle><circle class="cls-4" cx="220.27" cy="416.7" r="5"></circle><circle class="cls-4" cx="220.27" cy="441.3" r="5"></circle><circle class="cls-4" cx="220.27" cy="466" r="5"></circle><circle class="cls-4" cx="220.27" cy="490.7" r="5"></circle><circle class="cls-4" cx="220.27" cy="515.3" r="5"></circle><circle class="cls-4" cx="220.27" cy="540" r="5"></circle><circle class="cls-4" cx="195.57" cy="96" r="5"></circle><circle class="cls-4" cx="195.57" cy="120.7" r="5"></circle><circle class="cls-4" cx="195.57" cy="145.3" r="5"></circle><circle class="cls-4" cx="195.57" cy="170" r="5"></circle><circle class="cls-4" cx="195.57" cy="194.7" r="5"></circle><circle class="cls-4" cx="195.57" cy="219.3" r="5"></circle><circle class="cls-4" cx="195.57" cy="244" r="5"></circle><circle class="cls-4" cx="195.57" cy="268.7" r="5"></circle><circle class="cls-4" cx="195.57" cy="293.3" r="5"></circle><circle class="cls-4" cx="195.57" cy="318" r="5"></circle><circle class="cls-4" cx="195.57" cy="342.7" r="5"></circle><circle class="cls-4" cx="195.57" cy="367.3" r="5"></circle><circle class="cls-4" cx="195.57" cy="392" r="5"></circle><circle class="cls-4" cx="195.57" cy="416.7" r="5"></circle><circle class="cls-4" cx="195.57" cy="441.3" r="5"></circle><circle class="cls-4" cx="195.57" cy="466" r="5"></circle><circle class="cls-4" cx="195.57" cy="490.7" r="5"></circle><circle class="cls-4" cx="195.57" cy="515.3" r="5"></circle><circle class="cls-4" cx="195.57" cy="540" r="5"></circle><circle class="cls-4" cx="170.87" cy="120.7" r="5"></circle><circle class="cls-4" cx="170.87" cy="145.3" r="5"></circle><circle class="cls-4" cx="170.87" cy="170" r="5"></circle><circle class="cls-4" cx="170.87" cy="194.7" r="5"></circle><circle class="cls-4" cx="170.87" cy="219.3" r="5"></circle><circle class="cls-4" cx="170.87" cy="244" r="5"></circle><circle class="cls-4" cx="170.87" cy="268.7" r="5"></circle><circle class="cls-4" cx="170.87" cy="293.3" r="5"></circle><circle class="cls-4" cx="170.87" cy="318" r="5"></circle><circle class="cls-4" cx="170.87" cy="342.7" r="5"></circle><circle class="cls-4" cx="170.87" cy="367.3" r="5"></circle><circle class="cls-4" cx="170.87" cy="392" r="5"></circle><circle class="cls-4" cx="170.87" cy="416.7" r="5"></circle><circle class="cls-4" cx="170.87" cy="441.3" r="5"></circle><circle class="cls-4" cx="170.87" cy="466" r="5"></circle><circle class="cls-4" cx="170.87" cy="490.7" r="5"></circle><circle class="cls-4" cx="170.87" cy="515.3" r="5"></circle><circle class="cls-4" cx="170.87" cy="540" r="5"></circle><circle class="cls-4" cx="146.27" cy="120.7" r="5"></circle><circle class="cls-4" cx="146.27" cy="145.3" r="5"></circle><circle class="cls-4" cx="146.27" cy="170" r="5"></circle><circle class="cls-4" cx="146.27" cy="194.7" r="5"></circle><circle class="cls-4" cx="146.27" cy="219.3" r="5"></circle><circle class="cls-4" cx="146.27" cy="244" r="5"></circle><circle class="cls-4" cx="146.27" cy="268.7" r="5"></circle><circle class="cls-4" cx="146.27" cy="293.3" r="5"></circle><circle class="cls-4" cx="146.27" cy="318" r="5"></circle><circle class="cls-4" cx="146.27" cy="342.7" r="5"></circle><circle class="cls-4" cx="146.27" cy="367.3" r="5"></circle><circle class="cls-4" cx="146.27" cy="392" r="5"></circle><circle class="cls-4" cx="146.27" cy="416.7" r="5"></circle><circle class="cls-4" cx="146.27" cy="441.3" r="5"></circle><circle class="cls-4" cx="146.27" cy="466" r="5"></circle><circle class="cls-4" cx="146.27" cy="490.7" r="5"></circle><circle class="cls-4" cx="146.27" cy="515.3" r="5"></circle><circle class="cls-4" cx="121.57" cy="120.7" r="5"></circle><circle class="cls-4" cx="121.57" cy="145.3" r="5"></circle><circle class="cls-4" cx="121.57" cy="170" r="5"></circle><circle class="cls-4" cx="121.57" cy="194.7" r="5"></circle><circle class="cls-4" cx="121.57" cy="219.3" r="5"></circle><circle class="cls-4" cx="121.57" cy="244" r="5"></circle><circle class="cls-4" cx="121.57" cy="268.7" r="5"></circle><circle class="cls-4" cx="121.57" cy="293.3" r="5"></circle><circle class="cls-4" cx="121.57" cy="318" r="5"></circle><circle class="cls-4" cx="121.57" cy="342.7" r="5"></circle><circle class="cls-4" cx="121.57" cy="367.3" r="5"></circle><circle class="cls-4" cx="121.57" cy="392" r="5"></circle><circle class="cls-4" cx="121.57" cy="416.7" r="5"></circle><circle class="cls-4" cx="121.57" cy="441.3" r="5"></circle><circle class="cls-4" cx="121.57" cy="466" r="5"></circle><circle class="cls-4" cx="121.57" cy="490.7" r="5"></circle><circle class="cls-4" cx="121.57" cy="515.3" r="5"></circle><circle class="cls-4" cx="96.87" cy="145.3" r="5"></circle><circle class="cls-4" cx="96.87" cy="170" r="5"></circle><circle class="cls-4" cx="96.87" cy="194.7" r="5"></circle><circle class="cls-4" cx="96.87" cy="219.3" r="5"></circle><circle class="cls-4" cx="96.87" cy="244" r="5"></circle><circle class="cls-4" cx="96.87" cy="268.7" r="5"></circle><circle class="cls-4" cx="96.87" cy="293.3" r="5"></circle><circle class="cls-4" cx="96.87" cy="318" r="5"></circle><circle class="cls-4" cx="96.87" cy="342.7" r="5"></circle><circle class="cls-4" cx="96.87" cy="367.3" r="5"></circle><circle class="cls-4" cx="96.87" cy="392" r="5"></circle><circle class="cls-4" cx="96.87" cy="416.7" r="5"></circle><circle class="cls-4" cx="96.87" cy="441.3" r="5"></circle><circle class="cls-4" cx="96.87" cy="466" r="5"></circle><circle class="cls-4" cx="96.87" cy="490.7" r="5"></circle><circle class="cls-4" cx="72.27" cy="170" r="5"></circle><circle class="cls-4" cx="72.27" cy="194.7" r="5"></circle><circle class="cls-4" cx="72.27" cy="219.3" r="5"></circle><circle class="cls-4" cx="72.27" cy="244" r="5"></circle><circle class="cls-4" cx="72.27" cy="268.7" r="5"></circle><circle class="cls-4" cx="72.27" cy="293.3" r="5"></circle><circle class="cls-4" cx="72.27" cy="318" r="5"></circle><circle class="cls-4" cx="72.27" cy="342.7" r="5"></circle><circle class="cls-4" cx="72.27" cy="367.3" r="5"></circle><circle class="cls-4" cx="72.27" cy="392" r="5"></circle><circle class="cls-4" cx="72.27" cy="416.7" r="5"></circle><circle class="cls-4" cx="72.27" cy="441.3" r="5"></circle><circle class="cls-4" cx="72.27" cy="466" r="5"></circle><circle class="cls-4" cx="47.57" cy="194.7" r="5"></circle><circle class="cls-4" cx="47.57" cy="219.3" r="5"></circle><circle class="cls-4" cx="47.57" cy="244" r="5"></circle><circle class="cls-4" cx="47.57" cy="268.7" r="5"></circle><circle class="cls-4" cx="47.57" cy="293.3" r="5"></circle><circle class="cls-4" cx="47.57" cy="318" r="5"></circle><circle class="cls-4" cx="47.57" cy="342.7" r="5"></circle><circle class="cls-4" cx="47.57" cy="367.3" r="5"></circle><circle class="cls-4" cx="47.57" cy="392" r="5"></circle><circle class="cls-4" cx="47.57" cy="416.7" r="5"></circle><circle class="cls-4" cx="47.57" cy="441.3" r="5"></circle><circle class="cls-4" cx="22.87" cy="244" r="5"></circle><circle class="cls-4" cx="22.87" cy="268.7" r="5"></circle><circle class="cls-4" cx="22.87" cy="293.3" r="5"></circle><circle class="cls-4" cx="22.87" cy="318" r="5"></circle><circle class="cls-4" cx="22.87" cy="342.7" r="5"></circle><circle class="cls-4" cx="22.87" cy="367.3" r="5"></circle><circle class="cls-4" cx="22.87" cy="392" r="5"></circle><path class="cls-3" d="M1473.7,128.67a5.13,5.13,0,0,0-4.8-.3c-113.6,54-171,148.9-221.6,232.6l-1.5,2.5c-26.6,43.9-54.1,89.4-88,121.5-36.7,34.8-77.5,51-128.2,51a498.48,498.48,0,0,0-67.7,4.3c-75.8,10.3-127.5,49.3-177.5,87.1-56.75,42.86-110.3,83.32-196.07,83.4a5.28,5.28,0,0,0-5.22,4.62,5,5,0,0,0,5,5.38h883a5,5,0,0,0,5-5V132.87A4.91,4.91,0,0,0,1473.7,128.67Z"></path><circle class="cls-4" cx="1379.57" cy="370.3" r="5"></circle><circle class="cls-4" cx="1379.57" cy="395" r="5"></circle><circle class="cls-4" cx="1379.57" cy="419.7" r="5"></circle><circle class="cls-4" cx="1379.57" cy="444.3" r="5"></circle><circle class="cls-4" cx="1379.57" cy="469" r="5"></circle><circle class="cls-4" cx="1379.57" cy="493.7" r="5"></circle><circle class="cls-4" cx="1379.57" cy="518.3" r="5"></circle><circle class="cls-4" cx="1379.57" cy="543" r="5"></circle><circle class="cls-4" cx="1379.57" cy="567.7" r="5"></circle><circle class="cls-4" cx="1379.57" cy="592.3" r="5"></circle><circle class="cls-4" cx="1379.57" cy="617" r="5"></circle><circle class="cls-4" cx="1379.57" cy="641.7" r="5"></circle><circle class="cls-4" cx="1379.57" cy="666.3" r="5"></circle><circle class="cls-4" cx="1379.57" cy="691" r="5"></circle><circle class="cls-4" cx="1379.57" cy="715.7" r="5"></circle><circle class="cls-4" cx="1354.87" cy="370.3" r="5"></circle><circle class="cls-4" cx="1354.87" cy="395" r="5"></circle><circle class="cls-4" cx="1354.87" cy="419.7" r="5"></circle><circle class="cls-4" cx="1354.87" cy="444.3" r="5"></circle><circle class="cls-4" cx="1354.87" cy="469" r="5"></circle><circle class="cls-4" cx="1354.87" cy="493.7" r="5"></circle><circle class="cls-4" cx="1354.87" cy="518.3" r="5"></circle><circle class="cls-4" cx="1354.87" cy="543" r="5"></circle><circle class="cls-4" cx="1354.87" cy="567.7" r="5"></circle><circle class="cls-4" cx="1354.87" cy="592.3" r="5"></circle><circle class="cls-4" cx="1354.87" cy="617" r="5"></circle><circle class="cls-4" cx="1354.87" cy="641.7" r="5"></circle><circle class="cls-4" cx="1354.87" cy="666.3" r="5"></circle><circle class="cls-4" cx="1354.87" cy="691" r="5"></circle><circle class="cls-4" cx="1354.87" cy="715.7" r="5"></circle><circle class="cls-4" cx="1330.27" cy="370.3" r="5"></circle><circle class="cls-4" cx="1330.27" cy="395" r="5"></circle><circle class="cls-4" cx="1330.27" cy="419.7" r="5"></circle><circle class="cls-4" cx="1330.27" cy="444.3" r="5"></circle><circle class="cls-4" cx="1330.27" cy="469" r="5"></circle><circle class="cls-4" cx="1330.27" cy="493.7" r="5"></circle><circle class="cls-4" cx="1330.27" cy="518.3" r="5"></circle><circle class="cls-4" cx="1330.27" cy="543" r="5"></circle><circle class="cls-4" cx="1330.27" cy="567.7" r="5"></circle><circle class="cls-4" cx="1330.27" cy="592.3" r="5"></circle><circle class="cls-4" cx="1330.27" cy="617" r="5"></circle><circle class="cls-4" cx="1330.27" cy="641.7" r="5"></circle><circle class="cls-4" cx="1330.27" cy="666.3" r="5"></circle><circle class="cls-4" cx="1330.27" cy="691" r="5"></circle><circle class="cls-4" cx="1330.27" cy="715.7" r="5"></circle><circle class="cls-4" cx="1305.57" cy="370.3" r="5"></circle><circle class="cls-4" cx="1305.57" cy="395" r="5"></circle><circle class="cls-4" cx="1305.57" cy="419.7" r="5"></circle><circle class="cls-4" cx="1305.57" cy="444.3" r="5"></circle><circle class="cls-4" cx="1305.57" cy="469" r="5"></circle><circle class="cls-4" cx="1305.57" cy="493.7" r="5"></circle><circle class="cls-4" cx="1305.57" cy="518.3" r="5"></circle><circle class="cls-4" cx="1305.57" cy="543" r="5"></circle><circle class="cls-4" cx="1305.57" cy="567.7" r="5"></circle><circle class="cls-4" cx="1305.57" cy="592.3" r="5"></circle><circle class="cls-4" cx="1305.57" cy="617" r="5"></circle><circle class="cls-4" cx="1305.57" cy="641.7" r="5"></circle><circle class="cls-4" cx="1305.57" cy="666.3" r="5"></circle><circle class="cls-4" cx="1305.57" cy="691" r="5"></circle><circle class="cls-4" cx="1305.57" cy="715.7" r="5"></circle><circle class="cls-4" cx="1280.87" cy="370.3" r="5"></circle><circle class="cls-4" cx="1280.87" cy="395" r="5"></circle><circle class="cls-4" cx="1280.87" cy="419.7" r="5"></circle><circle class="cls-4" cx="1280.87" cy="444.3" r="5"></circle><circle class="cls-4" cx="1280.87" cy="469" r="5"></circle><circle class="cls-4" cx="1280.87" cy="493.7" r="5"></circle><circle class="cls-4" cx="1280.87" cy="518.3" r="5"></circle><circle class="cls-4" cx="1280.87" cy="543" r="5"></circle><circle class="cls-4" cx="1280.87" cy="567.7" r="5"></circle><circle class="cls-4" cx="1280.87" cy="592.3" r="5"></circle><circle class="cls-4" cx="1280.87" cy="617" r="5"></circle><circle class="cls-4" cx="1280.87" cy="641.7" r="5"></circle><circle class="cls-4" cx="1280.87" cy="666.3" r="5"></circle><circle class="cls-4" cx="1280.87" cy="691" r="5"></circle><circle class="cls-4" cx="1280.87" cy="715.7" r="5"></circle><circle class="cls-4" cx="1256.27" cy="370.3" r="5"></circle><circle class="cls-4" cx="1256.27" cy="395" r="5"></circle><circle class="cls-4" cx="1256.27" cy="419.7" r="5"></circle><circle class="cls-4" cx="1256.27" cy="444.3" r="5"></circle><circle class="cls-4" cx="1256.27" cy="469" r="5"></circle><circle class="cls-4" cx="1256.27" cy="493.7" r="5"></circle><circle class="cls-4" cx="1256.27" cy="518.3" r="5"></circle><circle class="cls-4" cx="1256.27" cy="543" r="5"></circle><circle class="cls-4" cx="1256.27" cy="567.7" r="5"></circle><circle class="cls-4" cx="1256.27" cy="592.3" r="5"></circle><circle class="cls-4" cx="1256.27" cy="617" r="5"></circle><circle class="cls-4" cx="1256.27" cy="641.7" r="5"></circle><circle class="cls-4" cx="1256.27" cy="666.3" r="5"></circle><circle class="cls-4" cx="1256.27" cy="691" r="5"></circle><circle class="cls-4" cx="1256.27" cy="715.7" r="5"></circle><circle class="cls-4" cx="1231.57" cy="419.7" r="5"></circle><circle class="cls-4" cx="1231.57" cy="444.3" r="5"></circle><circle class="cls-4" cx="1231.57" cy="469" r="5"></circle><circle class="cls-4" cx="1231.57" cy="493.7" r="5"></circle><circle class="cls-4" cx="1231.57" cy="518.3" r="5"></circle><circle class="cls-4" cx="1231.57" cy="543" r="5"></circle><circle class="cls-4" cx="1231.57" cy="567.7" r="5"></circle><circle class="cls-4" cx="1231.57" cy="592.3" r="5"></circle><circle class="cls-4" cx="1231.57" cy="617" r="5"></circle><circle class="cls-4" cx="1231.57" cy="641.7" r="5"></circle><circle class="cls-4" cx="1231.57" cy="666.3" r="5"></circle><circle class="cls-4" cx="1231.57" cy="691" r="5"></circle><circle class="cls-4" cx="1231.57" cy="715.7" r="5"></circle><circle class="cls-4" cx="1206.87" cy="444.3" r="5"></circle><circle class="cls-4" cx="1206.87" cy="469" r="5"></circle><circle class="cls-4" cx="1206.87" cy="493.7" r="5"></circle><circle class="cls-4" cx="1206.87" cy="518.3" r="5"></circle><circle class="cls-4" cx="1206.87" cy="543" r="5"></circle><circle class="cls-4" cx="1206.87" cy="567.7" r="5"></circle><circle class="cls-4" cx="1206.87" cy="592.3" r="5"></circle><circle class="cls-4" cx="1206.87" cy="617" r="5"></circle><circle class="cls-4" cx="1206.87" cy="641.7" r="5"></circle><circle class="cls-4" cx="1206.87" cy="666.3" r="5"></circle><circle class="cls-4" cx="1206.87" cy="691" r="5"></circle><circle class="cls-4" cx="1206.87" cy="715.7" r="5"></circle><circle class="cls-4" cx="1182.27" cy="493.7" r="5"></circle><circle class="cls-4" cx="1182.27" cy="518.3" r="5"></circle><circle class="cls-4" cx="1182.27" cy="543" r="5"></circle><circle class="cls-4" cx="1182.27" cy="567.7" r="5"></circle><circle class="cls-4" cx="1182.27" cy="592.3" r="5"></circle><circle class="cls-4" cx="1182.27" cy="617" r="5"></circle><circle class="cls-4" cx="1182.27" cy="641.7" r="5"></circle><circle class="cls-4" cx="1182.27" cy="666.3" r="5"></circle><circle class="cls-4" cx="1182.27" cy="691" r="5"></circle><circle class="cls-4" cx="1182.27" cy="715.7" r="5"></circle><circle class="cls-4" cx="1157.57" cy="518.3" r="5"></circle><circle class="cls-4" cx="1157.57" cy="543" r="5"></circle><circle class="cls-4" cx="1157.57" cy="567.7" r="5"></circle><circle class="cls-4" cx="1157.57" cy="592.3" r="5"></circle><circle class="cls-4" cx="1157.57" cy="617" r="5"></circle><circle class="cls-4" cx="1157.57" cy="641.7" r="5"></circle><circle class="cls-4" cx="1157.57" cy="666.3" r="5"></circle><circle class="cls-4" cx="1157.57" cy="691" r="5"></circle><circle class="cls-4" cx="1157.57" cy="715.7" r="5"></circle><circle class="cls-4" cx="1132.87" cy="518.3" r="5"></circle><circle class="cls-4" cx="1132.87" cy="543" r="5"></circle><circle class="cls-4" cx="1132.87" cy="567.7" r="5"></circle><circle class="cls-4" cx="1132.87" cy="592.3" r="5"></circle><circle class="cls-4" cx="1132.87" cy="617" r="5"></circle><circle class="cls-4" cx="1132.87" cy="641.7" r="5"></circle><circle class="cls-4" cx="1132.87" cy="666.3" r="5"></circle><circle class="cls-4" cx="1132.87" cy="691" r="5"></circle><circle class="cls-4" cx="1132.87" cy="715.7" r="5"></circle><circle class="cls-4" cx="1108.27" cy="543" r="5"></circle><circle class="cls-4" cx="1108.27" cy="567.7" r="5"></circle><circle class="cls-4" cx="1108.27" cy="592.3" r="5"></circle><circle class="cls-4" cx="1108.27" cy="617" r="5"></circle><circle class="cls-4" cx="1108.27" cy="641.7" r="5"></circle><circle class="cls-4" cx="1108.27" cy="666.3" r="5"></circle><circle class="cls-4" cx="1108.27" cy="691" r="5"></circle><circle class="cls-4" cx="1108.27" cy="715.7" r="5"></circle><circle class="cls-4" cx="1083.57" cy="543" r="5"></circle><circle class="cls-4" cx="1083.57" cy="567.7" r="5"></circle><circle class="cls-4" cx="1083.57" cy="592.3" r="5"></circle><circle class="cls-4" cx="1083.57" cy="617" r="5"></circle><circle class="cls-4" cx="1083.57" cy="641.7" r="5"></circle><circle class="cls-4" cx="1083.57" cy="666.3" r="5"></circle><circle class="cls-4" cx="1083.57" cy="691" r="5"></circle><circle class="cls-4" cx="1083.57" cy="715.7" r="5"></circle><circle class="cls-4" cx="1058.87" cy="543" r="5"></circle><circle class="cls-4" cx="1058.87" cy="567.7" r="5"></circle><circle class="cls-4" cx="1058.87" cy="592.3" r="5"></circle><circle class="cls-4" cx="1058.87" cy="617" r="5"></circle><circle class="cls-4" cx="1058.87" cy="641.7" r="5"></circle><circle class="cls-4" cx="1058.87" cy="666.3" r="5"></circle><circle class="cls-4" cx="1058.87" cy="691" r="5"></circle><circle class="cls-4" cx="1058.87" cy="715.7" r="5"></circle><circle class="cls-4" cx="1034.27" cy="543" r="5"></circle><circle class="cls-4" cx="1034.27" cy="567.7" r="5"></circle><circle class="cls-4" cx="1034.27" cy="592.3" r="5"></circle><circle class="cls-4" cx="1034.27" cy="617" r="5"></circle><circle class="cls-4" cx="1034.27" cy="641.7" r="5"></circle><circle class="cls-4" cx="1034.27" cy="666.3" r="5"></circle><circle class="cls-4" cx="1034.27" cy="691" r="5"></circle><circle class="cls-4" cx="1034.27" cy="715.7" r="5"></circle><circle class="cls-4" cx="1009.57" cy="543" r="5"></circle><circle class="cls-4" cx="1009.57" cy="567.7" r="5"></circle><circle class="cls-4" cx="1009.57" cy="592.3" r="5"></circle><circle class="cls-4" cx="1009.57" cy="617" r="5"></circle><circle class="cls-4" cx="1009.57" cy="641.7" r="5"></circle><circle class="cls-4" cx="1009.57" cy="666.3" r="5"></circle><circle class="cls-4" cx="1009.57" cy="691" r="5"></circle><circle class="cls-4" cx="1009.57" cy="715.7" r="5"></circle><circle class="cls-4" cx="984.87" cy="543" r="5"></circle><circle class="cls-4" cx="984.87" cy="567.7" r="5"></circle><circle class="cls-4" cx="984.87" cy="592.3" r="5"></circle><circle class="cls-4" cx="984.87" cy="617" r="5"></circle><circle class="cls-4" cx="984.87" cy="641.7" r="5"></circle><circle class="cls-4" cx="984.87" cy="666.3" r="5"></circle><circle class="cls-4" cx="984.87" cy="691" r="5"></circle><circle class="cls-4" cx="984.87" cy="715.7" r="5"></circle><circle class="cls-5" cx="1170.47" cy="249.5" r="116.4"></circle><path class="cls-4" d="M1170.47,370.9a121.4,121.4,0,1,1,121.4-121.4C1291.87,316.4,1237.37,370.9,1170.47,370.9Zm0-232.8a111.4,111.4,0,1,0,111.4,111.4A111.56,111.56,0,0,0,1170.47,138.1Z"></path><path class="cls-3" d="M1286.87,249.5s-52.1,56.4-116.4,56.4-116.4-56.4-116.4-56.4,52.1-56.4,116.4-56.4S1286.87,249.5,1286.87,249.5Z"></path><path class="cls-4" d="M1170.47,310.9c-65.7,0-117.9-55.6-120.1-58a5,5,0,0,1,0-6.8c2.2-2.4,54.4-58,120.1-58s117.9,55.6,120.1,58a5,5,0,0,1,0,6.8C1288.37,255.3,1236.17,310.9,1170.47,310.9Zm-109.4-61.4c12.4,12,57.1,51.4,109.4,51.4s97-39.4,109.4-51.4c-12.4-12-57.1-51.4-109.4-51.4S1073.37,237.5,1061.07,249.5Z"></path><path class="cls-4" d="M1170.47,206.5a43,43,0,1,0,43,43A43.06,43.06,0,0,0,1170.47,206.5Z"></path><path class="cls-2" d="M471.07,249.5c0,128.6-104.2,232.9-233,233.2l1-233.2V16.3C366.77,16.3,471.07,120.7,471.07,249.5Z"></path><path class="cls-4" d="M238.37,487.7a5.37,5.37,0,0,1-5.27-5l1-233.2V16.3c-1.13-2.8,1.07-5,3.87-5a238.2,238.2,0,0,1,.4,476.4ZM243.1,21.4V249.5l.4,228.1a228.16,228.16,0,0,0-.4-456.2Z"></path><path class="cls-6" d="M238.5,482.77h-.4a242.36,242.36,0,0,1-38.3-3.1c-.8-.1-1.5-.3-2.3-.4-1.7-.3-3.4-.6-5-1a230.58,230.58,0,0,1-92.2-40.6c-.7-.5-1.4-1.1-2.1-1.6s-1.4-1.1-2.1-1.6-1.4-1.1-2.1-1.6a225.62,225.62,0,0,1-21.8-19.6,232.68,232.68,0,0,1,1-328.5h0a232.47,232.47,0,0,1,164.9-68.3v233.1Z"></path><path class="cls-4" d="M238.6,487.77h-.4a242.67,242.67,0,0,1-39.1-3.2c-.8-.1-1.6-.3-2.4-.4-1.7-.3-3.4-.6-5.1-1a235.52,235.52,0,0,1-94.2-41.5l-2.2-1.6a14.31,14.31,0,0,0-1.5-1.1l-.6-.5c-.7-.6-1.4-1.1-2.2-1.7a234.17,234.17,0,0,1-22.3-20,238.52,238.52,0,0,1-53.8-250.1,239.89,239.89,0,0,1,54.9-85.5l.2-.2a236.52,236.52,0,0,1,168.18-69.6,5,5,0,0,1,5,5v233.1l.4,233.2a4.69,4.69,0,0,1-1.5,3.5A5.17,5.17,0,0,1,238.6,487.77ZM76.47,88.4a228.15,228.15,0,0,0-.9,321.3A214.71,214.71,0,0,0,97,428.8c.7.5,1.4,1.1,2.1,1.6l.6.5,1.4,1.1,2.1,1.6a225.84,225.84,0,0,0,90.2,39.7l4.9.9c.7.1,1.5.3,2.2.4a225.83,225.83,0,0,0,32.63,3l1-228.1V21.4C173.87,22.7,118.57,46.3,76.67,88.2A.22.22,0,0,0,76.47,88.4Z"></path><path class="cls-7" d="M238.1,16.3V249.4L19.4,168.3A233,233,0,0,1,73.2,84.6h0A232.47,232.47,0,0,1,238.1,16.3Z"></path><path class="cls-4" d="M238,254.5a4.67,4.67,0,0,1-1.7-.3L17.7,173.1a5.1,5.1,0,0,1-2.8-2.6,5,5,0,0,1-.1-3.8A239.89,239.89,0,0,1,69.7,81.2l.2-.2A236.52,236.52,0,0,1,238.08,11.4a5,5,0,0,1,5,5V249.5a5.07,5.07,0,0,1-2.1,4.1A5.79,5.79,0,0,1,238,254.5ZM25.9,165.4l207.2,76.9V21.4A226.68,226.68,0,0,0,76.8,88.2l-.2.2A228.83,228.83,0,0,0,25.9,165.4Z"></path><path class="cls-3" d="M238.5,482.7h0a226.23,226.23,0,0,1-38.7-3.1c-.8-.1-1.5-.3-2.3-.4a236.73,236.73,0,0,1-56.2-17.5h0a238.46,238.46,0,0,1-41.1-24c-.7-.5-1.4-1.1-2.1-1.6s-1.4-1.1-2.1-1.6-1.4-1.1-2.1-1.6A224.36,224.36,0,0,1,72,413.4h0L238.1,249.7Z"></path><path class="cls-4" d="M238.07,487.77a241.6,241.6,0,0,1-39.2-3.37c-.8-.1-1.6-.3-2.4-.4a236.12,236.12,0,0,1-57.4-17.9c-.1,0-.2-.1-.3-.1a241.89,241.89,0,0,1-41.7-24.4l-2.2-1.6a14.31,14.31,0,0,0-1.5-1.1l-.6-.5c-.7-.6-1.4-1.1-2.2-1.7a248.61,248.61,0,0,1-22.3-20,4.82,4.82,0,0,1-1.4-3.6,5.09,5.09,0,0,1,1.5-3.5l166-163.7a5.14,5.14,0,0,1,5.4-1.1c1.9.8,3.1,2.6,2.33,4.6l1,233.2h0v.1a4.81,4.81,0,0,1-4.83,5.07ZM143.2,457.2a224.7,224.7,0,0,0,54.8,17c.7.1,1.5.3,2.2.4a227.47,227.47,0,0,0,32.9,3.1l-.4-216.2L78.7,413.3c5.7,5.5,11.7,10.7,17.8,15.6.7.5,1.4,1.1,2.1,1.6l.6.5,1.4,1.1,2.1,1.6a236.5,236.5,0,0,0,40.1,23.5C143,457.1,143.1,457.1,143.2,457.2Z"></path><rect class="cls-4" x="343.97" y="168.55" width="10" height="233.19" transform="translate(-29.21 530.24) rotate(-72.2)"></rect><circle class="cls-4" cx="471.07" cy="548.3" r="11.3"></circle><path class="cls-4" d="M471.07,564.6a16.3,16.3,0,1,1,16.3-16.3A16.3,16.3,0,0,1,471.07,564.6Zm0-22.6a6.3,6.3,0,1,0,6.3,6.3A6.27,6.27,0,0,0,471.07,542Z"></path><circle class="cls-4" cx="704.37" cy="249.5" r="11.3"></circle><path class="cls-4" d="M704.37,265.8a16.3,16.3,0,1,1,16.3-16.3A16.3,16.3,0,0,1,704.37,265.8Zm0-22.6a6.3,6.3,0,1,0,6.3,6.3A6.34,6.34,0,0,0,704.37,243.2Z"></path><circle class="cls-4" cx="820.87" cy="365.9" r="11.3"></circle><path class="cls-4" d="M820.87,382.2a16.3,16.3,0,1,1,16.3-16.3A16.3,16.3,0,0,1,820.87,382.2Zm0-22.6a6.3,6.3,0,1,0,6.3,6.3A6.34,6.34,0,0,0,820.87,359.6Z"></path><circle class="cls-4" cx="937.57" cy="249.5" r="11.3"></circle><path class="cls-4" d="M937.57,265.8a16.3,16.3,0,1,1,16.3-16.3A16.3,16.3,0,0,1,937.57,265.8Zm0-22.6a6.3,6.3,0,1,0,6.3,6.3A6.27,6.27,0,0,0,937.57,243.2Z"></path><circle class="cls-4" cx="1053.97" cy="132.9" r="11.3"></circle><path class="cls-4" d="M1054,149.2a16.3,16.3,0,1,1,16.3-16.3A16.3,16.3,0,0,1,1054,149.2Zm0-22.6a6.3,6.3,0,1,0,6.3,6.3A6.27,6.27,0,0,0,1054,126.6Z"></path><circle class="cls-4" cx="1053.97" cy="16.3" r="11.3"></circle><path class="cls-4" d="M1054,32.6a16.3,16.3,0,1,1,16.3-16.3A16.3,16.3,0,0,1,1054,32.6Zm0-22.5a6.3,6.3,0,1,0,6.3,6.3A6.27,6.27,0,0,0,1054,10.1Z"></path><circle class="cls-3" cx="937.57" cy="132.9" r="11.3"></circle><path class="cls-3" d="M937.57,149.2a16.3,16.3,0,1,1,16.3-16.3A16.3,16.3,0,0,1,937.57,149.2Zm0-22.6a6.3,6.3,0,1,0,6.3,6.3A6.27,6.27,0,0,0,937.57,126.6Z"></path><circle class="cls-3" cx="704.37" cy="482.4" r="11.3"></circle><path class="cls-3" d="M704.37,498.7a16.3,16.3,0,1,1,16.3-16.3A16.3,16.3,0,0,1,704.37,498.7Zm0-22.6a6.3,6.3,0,1,0,6.3,6.3A6.34,6.34,0,0,0,704.37,476.1Z"></path><circle class="cls-3" cx="820.87" cy="249.5" r="11.3"></circle><path class="cls-3" d="M820.87,265.8a16.3,16.3,0,1,1,16.3-16.3A16.3,16.3,0,0,1,820.87,265.8Zm0-22.6a6.3,6.3,0,1,0,6.3,6.3A6.34,6.34,0,0,0,820.87,243.2Z"></path><circle class="cls-3" cx="537.67" cy="365.9" r="11.3"></circle><path class="cls-3" d="M537.67,382.2A16.3,16.3,0,1,1,554,365.9,16.3,16.3,0,0,1,537.67,382.2Zm0-22.6a6.3,6.3,0,1,0,6.3,6.3A6.27,6.27,0,0,0,537.67,359.6Z"></path><path class="cls-7" d="M646,132.9h0a58.3,58.3,0,0,1-58.3-58.3h0A58.3,58.3,0,0,1,646,16.3h0a58.3,58.3,0,0,1,58.3,58.3h0A58.3,58.3,0,0,1,646,132.9Z"></path><path class="cls-4" d="M646,137.9a63.3,63.3,0,1,1,63.3-63.3A63.38,63.38,0,0,1,646,137.9Zm0-116.6a53.3,53.3,0,1,0,53.3,53.3A53.35,53.35,0,0,0,646,21.3Z"></path><rect class="cls-3" x="1054.1" y="365.77" width="417" height="350"></rect><path class="cls-4" d="M1471.1,720.77h-417a5,5,0,0,1-5-5v-350a5,5,0,0,1,5-5h417a5,5,0,0,1,5,5v350A5,5,0,0,1,1471.1,720.77Zm-412.1-10h407.1v-340h-407v340Z"></path><polygon class="cls-7" points="1471.1 484.77 1054.1 482.76 1054.1 365.77 1471.1 367.77 1471.1 484.77"></polygon><path class="cls-4" d="M1471.2,489.77h0l-417.1-2a5,5,0,0,1-5-5v-117a4.71,4.71,0,0,1,1.5-3.51,5.09,5.09,0,0,1,3.5-1.5h0l417,2a5,5,0,0,1,5,5v117a5.15,5.15,0,0,1-4.9,5Zm-412.1-12,407,2v-107l-407-2Z"></path><path class="cls-4" d="M1112.57,445.5a20.2,20.2,0,1,1,20.2-20.2A20.21,20.21,0,0,1,1112.57,445.5Zm0-30.3a10.2,10.2,0,1,0,10.2,10.2A10.24,10.24,0,0,0,1112.57,415.2Z"></path><path class="cls-4" d="M1163,445.5a20.2,20.2,0,1,1,20.2-20.2A20.21,20.21,0,0,1,1163,445.5Zm0-30.3a10.2,10.2,0,1,0,10.2,10.2A10.24,10.24,0,0,0,1163,415.2Z"></path><path class="cls-4" d="M1213.37,445.5a20.2,20.2,0,1,1,20.2-20.2A20.21,20.21,0,0,1,1213.37,445.5Zm0-30.3a10.2,10.2,0,1,0,10.2,10.2A10.24,10.24,0,0,0,1213.37,415.2Z"></path><path class="cls-4" d="M1200.11,543.2l15.11-12.43h34.41l9.94,12.43-9.94,46.14-15.12,12.43h-34.4l-10-12.43ZM1330,531.77l-110.8,145h-24.5l110.9-145Zm-100,49.32,6.46-30.54-2.08-2.78h-10l-4.58,3.78-6.36,30.53,2,2.69h9.94Zm45,38.12,15.14-12.44h34.45l10.06,12.44-10.06,46.11-15.13,12.45H1275l-10.06-12.45ZM1305,657l6.39-30.62-2-2.59h-10.07l-4.59,3.79-6.38,30.61,2,2.6h10.08Z"></path><path class="cls-4" d="M726.79,531.77l4-18h15.63l10.9-27h20.38l-10.86,27h14.08l10.8-27h20.5l-10.9,27h13.16l-3.73,17H794.28l-8.23,21h13.08l-3.73,17H778.83l-10.63,27H748l10.72-27H744.78l-10.72,27H713.71l10.82-27H710.6l3.73-17h17l8.23-21-12.71,1Zm32.64-1-8.15,21H766.1l7.95-21Z"></path><path class="cls-7" d="M233.1,604.77v111a5,5,0,0,0,5,5h111a5,5,0,0,0,5-5,116.08,116.08,0,0,0-116-116A5,5,0,0,0,233.1,604.77Z"></path><rect class="cls-3" x="1325.1" y="87.77" width="10" height="33"></rect><rect class="cls-3" x="1313.1" y="98.77" width="33" height="10"></rect><rect class="cls-3" x="108.1" y="579.77" width="10" height="33"></rect><rect class="cls-3" x="96.1" y="590.77" width="33" height="10"></rect><rect class="cls-3" x="641.1" y="176.77" width="10" height="33"></rect><rect class="cls-3" x="629.1" y="187.77" width="33" height="10"></rect></g></g></svg> 