<?xml version="1.0" encoding="UTF-8"?> <svg xmlns="http://www.w3.org/2000/svg" xmlns:xlink="http://www.w3.org/1999/xlink" viewBox="0 0 592.25 520.94"><defs><style>.cls-1{opacity:0.5;fill:url(#linear-gradient);}.cls-2{opacity:0.8;fill:url(#linear-gradient-2);}.cls-3{fill:url(#linear-gradient-3);}</style><linearGradient id="linear-gradient" y1="380.87" x2="582.59" y2="380.87" gradientUnits="userSpaceOnUse"><stop offset="0" stop-color="#8900fc"></stop><stop offset="0.99" stop-color="#7400e3"></stop></linearGradient><linearGradient id="linear-gradient-2" x1="9.66" y1="260.23" x2="592.25" y2="260.23" xlink:href="#linear-gradient"></linearGradient><linearGradient id="linear-gradient-3" x1="1" y1="139.59" x2="581.58" y2="139.59" xlink:href="#linear-gradient"></linearGradient></defs><title>searchstack icon</title><g id="Layer_2" data-name="Layer 2"><g id="Layer_1-2" data-name="Layer 1"><path class="cls-1" d="M303.62,243.27l259.24,108c26.3,10.95,26.3,48.21,0,59.17l-259.24,108a32,32,0,0,1-24.66,0l-259.23-108c-26.31-11-26.31-48.22,0-59.17L279,243.27A32,32,0,0,1,303.62,243.27Z"></path><path class="cls-2" d="M313.28,122.63l259.24,108c26.3,11,26.3,48.22,0,59.18l-259.24,108a32.11,32.11,0,0,1-24.65,0l-259.24-108c-26.3-11-26.3-48.22,0-59.18l259.24-108A32,32,0,0,1,313.28,122.63Z"></path><path class="cls-3" d="M303.58,2.46,561.92,110.1c26.21,10.92,26.21,48.05,0,59L303.58,276.72a32,32,0,0,1-24.57,0L20.66,169.07c-26.21-10.92-26.21-48,0-59L279,2.46A31.91,31.91,0,0,1,303.58,2.46Z"></path></g></g></svg> 