<?xml version="1.0" encoding="UTF-8"?> <svg xmlns="http://www.w3.org/2000/svg" viewBox="0 0 1470.61 744"><defs><style>.cls-1{fill:#f3f6e6;}.cls-2{fill:#383a48;}.cls-3{fill:#7600e8;}.cls-4{fill:#f64c49;}.cls-5{fill:#7503f9;}.cls-6{fill:none;}</style></defs><title>SEO svg</title><g id="Layer_2" data-name="Layer 2"><g id="Layer_1-2" data-name="Layer 1"><path class="cls-1" d="M1466.11,408.3a5,5,0,0,0-5.4,4c-.1.3-5.4,26.8-22.3,57.5-15.5,28.1-44.1,65.5-92.6,84.4-60.7,23.6-74.9,60.9-88.6,97-12.4,32.6-24.1,63.4-70.6,83.2a4.93,4.93,0,0,0-2.9,5.6,5,5,0,0,0,4.9,4h277a5,5,0,0,0,5-5V413.3A4.93,4.93,0,0,0,1466.11,408.3Z"></path><path class="cls-2" d="M645.61,588.2c0,50.9-50.6,150.8-143,150.8h143Z"></path><path class="cls-2" d="M645.51,744H502.81a5.26,5.26,0,0,1-5.19-4.63,5,5,0,0,1,5-5.37c49.7,0,83-29.6,102.2-54.4,17.77-23.06,35.74-60.18,35.8-91.35a5.26,5.26,0,0,1,4.6-5.14,5,5,0,0,1,5.4,5V738.9A5.19,5.19,0,0,1,645.51,744Zm-93.3-10h88.4V635.7C626.21,673.8,596.21,715.3,552.21,734Z"></path><rect class="cls-3" x="1183.61" y="5" width="282" height="399"></rect><path class="cls-2" d="M1465.51,409h-281.9a5,5,0,0,1-5-5V5a5,5,0,0,1,5-5h282a5,5,0,0,1,5,5V404A5.1,5.1,0,0,1,1465.51,409Zm-276.9-10h272V10h-272Z"></path><circle class="cls-2" cx="1448.3" cy="21.69" r="5"></circle><circle class="cls-2" cx="1448.3" cy="46.39" r="5"></circle><circle class="cls-2" cx="1448.3" cy="71.09" r="5"></circle><circle class="cls-2" cx="1448.3" cy="95.69" r="5"></circle><circle class="cls-2" cx="1448.3" cy="120.39" r="5"></circle><circle class="cls-2" cx="1448.3" cy="145.09" r="5"></circle><circle class="cls-2" cx="1448.3" cy="169.69" r="5"></circle><circle class="cls-2" cx="1448.3" cy="194.39" r="5"></circle><circle class="cls-2" cx="1448.3" cy="219.09" r="5"></circle><circle class="cls-2" cx="1448.3" cy="243.69" r="5"></circle><circle class="cls-2" cx="1448.3" cy="268.39" r="5"></circle><circle class="cls-2" cx="1448.3" cy="293.09" r="5"></circle><circle class="cls-2" cx="1448.3" cy="317.69" r="5"></circle><circle class="cls-2" cx="1448.3" cy="342.39" r="5"></circle><circle class="cls-2" cx="1448.3" cy="367.09" r="5"></circle><circle class="cls-2" cx="1448.3" cy="391.69" r="5"></circle><circle class="cls-2" cx="1423.6" cy="21.69" r="5"></circle><circle class="cls-2" cx="1423.6" cy="46.39" r="5"></circle><circle class="cls-2" cx="1423.6" cy="71.09" r="5"></circle><circle class="cls-2" cx="1423.6" cy="95.69" r="5"></circle><circle class="cls-2" cx="1423.6" cy="120.39" r="5"></circle><circle class="cls-2" cx="1423.6" cy="145.09" r="5"></circle><circle class="cls-2" cx="1423.6" cy="169.69" r="5"></circle><circle class="cls-2" cx="1423.6" cy="194.39" r="5"></circle><circle class="cls-2" cx="1423.6" cy="219.09" r="5"></circle><circle class="cls-2" cx="1423.6" cy="243.69" r="5"></circle><circle class="cls-2" cx="1423.6" cy="268.39" r="5"></circle><circle class="cls-2" cx="1423.6" cy="293.09" r="5"></circle><circle class="cls-2" cx="1423.6" cy="317.69" r="5"></circle><circle class="cls-2" cx="1423.6" cy="342.39" r="5"></circle><circle class="cls-2" cx="1423.6" cy="367.09" r="5"></circle><circle class="cls-2" cx="1423.6" cy="391.69" r="5"></circle><circle class="cls-2" cx="1399" cy="21.69" r="5"></circle><circle class="cls-2" cx="1399" cy="46.39" r="5"></circle><circle class="cls-2" cx="1399" cy="71.09" r="5"></circle><circle class="cls-2" cx="1399" cy="95.69" r="5"></circle><circle class="cls-2" cx="1399" cy="120.39" r="5"></circle><circle class="cls-2" cx="1399" cy="145.09" r="5"></circle><circle class="cls-2" cx="1399" cy="169.69" r="5"></circle><circle class="cls-2" cx="1399" cy="194.39" r="5"></circle><circle class="cls-2" cx="1399" cy="219.09" r="5"></circle><circle class="cls-2" cx="1399" cy="243.69" r="5"></circle><circle class="cls-2" cx="1399" cy="268.39" r="5"></circle><circle class="cls-2" cx="1399" cy="293.09" r="5"></circle><circle class="cls-2" cx="1399" cy="317.69" r="5"></circle><circle class="cls-2" cx="1399" cy="342.39" r="5"></circle><circle class="cls-2" cx="1399" cy="367.09" r="5"></circle><circle class="cls-2" cx="1399" cy="391.69" r="5"></circle><circle class="cls-2" cx="1374.3" cy="21.69" r="5"></circle><circle class="cls-2" cx="1374.3" cy="46.39" r="5"></circle><circle class="cls-2" cx="1374.3" cy="71.09" r="5"></circle><circle class="cls-2" cx="1374.3" cy="95.69" r="5"></circle><circle class="cls-2" cx="1374.3" cy="120.39" r="5"></circle><circle class="cls-2" cx="1374.3" cy="145.09" r="5"></circle><circle class="cls-2" cx="1374.3" cy="169.69" r="5"></circle><circle class="cls-2" cx="1374.3" cy="194.39" r="5"></circle><circle class="cls-2" cx="1374.3" cy="219.09" r="5"></circle><circle class="cls-2" cx="1374.3" cy="243.69" r="5"></circle><circle class="cls-2" cx="1374.3" cy="268.39" r="5"></circle><circle class="cls-2" cx="1374.3" cy="293.09" r="5"></circle><circle class="cls-2" cx="1374.3" cy="317.69" r="5"></circle><circle class="cls-2" cx="1374.3" cy="342.39" r="5"></circle><circle class="cls-2" cx="1374.3" cy="367.09" r="5"></circle><circle class="cls-2" cx="1374.3" cy="391.69" r="5"></circle><circle class="cls-2" cx="1349.6" cy="21.69" r="5"></circle><circle class="cls-2" cx="1349.6" cy="46.39" r="5"></circle><circle class="cls-2" cx="1349.6" cy="71.09" r="5"></circle><circle class="cls-2" cx="1349.6" cy="95.69" r="5"></circle><circle class="cls-2" cx="1349.6" cy="120.39" r="5"></circle><circle class="cls-2" cx="1349.6" cy="145.09" r="5"></circle><circle class="cls-2" cx="1349.6" cy="169.69" r="5"></circle><circle class="cls-2" cx="1349.6" cy="194.39" r="5"></circle><circle class="cls-2" cx="1349.6" cy="219.09" r="5"></circle><circle class="cls-2" cx="1349.6" cy="243.69" r="5"></circle><circle class="cls-2" cx="1349.6" cy="268.39" r="5"></circle><circle class="cls-2" cx="1349.6" cy="293.09" r="5"></circle><circle class="cls-2" cx="1349.6" cy="317.69" r="5"></circle><circle class="cls-2" cx="1349.6" cy="342.39" r="5"></circle><circle class="cls-2" cx="1349.6" cy="367.09" r="5"></circle><circle class="cls-2" cx="1349.6" cy="391.69" r="5"></circle><circle class="cls-2" cx="1325" cy="21.69" r="5"></circle><circle class="cls-2" cx="1325" cy="46.39" r="5"></circle><circle class="cls-2" cx="1325" cy="71.09" r="5"></circle><circle class="cls-2" cx="1325" cy="95.69" r="5"></circle><circle class="cls-2" cx="1325" cy="120.39" r="5"></circle><circle class="cls-2" cx="1325" cy="145.09" r="5"></circle><circle class="cls-2" cx="1325" cy="169.69" r="5"></circle><circle class="cls-2" cx="1325" cy="194.39" r="5"></circle><circle class="cls-2" cx="1325" cy="219.09" r="5"></circle><circle class="cls-2" cx="1325" cy="243.69" r="5"></circle><circle class="cls-2" cx="1325" cy="268.39" r="5"></circle><circle class="cls-2" cx="1325" cy="293.09" r="5"></circle><circle class="cls-2" cx="1325" cy="317.69" r="5"></circle><circle class="cls-2" cx="1325" cy="342.39" r="5"></circle><circle class="cls-2" cx="1325" cy="367.09" r="5"></circle><circle class="cls-2" cx="1325" cy="391.69" r="5"></circle><circle class="cls-2" cx="1300.3" cy="21.69" r="5"></circle><circle class="cls-2" cx="1300.3" cy="46.39" r="5"></circle><circle class="cls-2" cx="1300.3" cy="71.09" r="5"></circle><circle class="cls-2" cx="1300.3" cy="95.69" r="5"></circle><circle class="cls-2" cx="1300.3" cy="120.39" r="5"></circle><circle class="cls-2" cx="1300.3" cy="145.09" r="5"></circle><circle class="cls-2" cx="1300.3" cy="169.69" r="5"></circle><circle class="cls-2" cx="1300.3" cy="194.39" r="5"></circle><circle class="cls-2" cx="1300.3" cy="219.09" r="5"></circle><circle class="cls-2" cx="1300.3" cy="243.69" r="5"></circle><circle class="cls-2" cx="1300.3" cy="268.39" r="5"></circle><circle class="cls-2" cx="1300.3" cy="293.09" r="5"></circle><circle class="cls-2" cx="1300.3" cy="317.69" r="5"></circle><circle class="cls-2" cx="1300.3" cy="342.39" r="5"></circle><circle class="cls-2" cx="1300.3" cy="367.09" r="5"></circle><circle class="cls-2" cx="1300.3" cy="391.69" r="5"></circle><circle class="cls-2" cx="1275.6" cy="21.69" r="5"></circle><circle class="cls-2" cx="1275.6" cy="46.39" r="5"></circle><circle class="cls-2" cx="1275.6" cy="71.09" r="5"></circle><circle class="cls-2" cx="1275.6" cy="95.69" r="5"></circle><circle class="cls-2" cx="1275.6" cy="120.39" r="5"></circle><circle class="cls-2" cx="1275.6" cy="145.09" r="5"></circle><circle class="cls-2" cx="1275.6" cy="169.69" r="5"></circle><circle class="cls-2" cx="1275.6" cy="194.39" r="5"></circle><circle class="cls-2" cx="1275.6" cy="219.09" r="5"></circle><circle class="cls-2" cx="1275.6" cy="243.69" r="5"></circle><circle class="cls-2" cx="1275.6" cy="268.39" r="5"></circle><circle class="cls-2" cx="1275.6" cy="293.09" r="5"></circle><circle class="cls-2" cx="1275.6" cy="317.69" r="5"></circle><circle class="cls-2" cx="1275.6" cy="342.39" r="5"></circle><circle class="cls-2" cx="1275.6" cy="367.09" r="5"></circle><circle class="cls-2" cx="1275.6" cy="391.69" r="5"></circle><path class="cls-3" d="M994.5,0H294.61a5,5,0,0,0-5,5V588a5,5,0,0,0,5,5h700a5,5,0,0,0,5-5V5A5.25,5.25,0,0,0,994.5,0Zm-4.89,233h-107V126h107Zm0,117h-107V243h107Zm-690-107h107V350h-107Zm117,0h107V350h-107Zm117,0h107V350h-107Zm116,0h107V350h-107Zm117,0h107V350h-107Zm107-10h-107V126h107Zm-117,0h-107V126h107Zm-116,0h-107V126h106l1,107.29Zm-117,0h-107V126h107V233Zm-117,0h-107V126h107Zm-107,127h107V467h-107Zm117,0h107V467h-107Zm117,0h107V467h-107Zm116,0h107V467h-107Zm117,0h107V467h-107Zm116,0h107V467h-107Zm107-243h-107V10h107Zm-116,0h-107V10h107Zm-117,0h-107V10h107Zm-116,0h-107V10h106l1,106.69Zm-117,0h-107V10h107V117Zm-224-107h107V117h-107Zm0,466h107V583h-107Zm117,0h107V583h-107Zm117,0h107V583h-107Zm116,0h107V583h-107Zm117,0h107V583h-107Zm223,107h-107V476h107Z"></path><path class="cls-4" d="M745.9,183.19l-16.6-11.3,10-17.4a5,5,0,0,0-.4-5.6,5.06,5.06,0,0,0-5.4-1.7l-19.2,5.9-7.4-18.7a5.05,5.05,0,0,0-9.4,0l-7.4,18.7-19.2-5.9a5.06,5.06,0,0,0-5.4,1.7,5,5,0,0,0-.4,5.6l10,17.4-16.6,11.3a4.86,4.86,0,0,0-2,5.2,5,5,0,0,0,4.1,3.8l19.8,3-1.5,20a5.25,5.25,0,0,0,2.8,4.9,5.45,5.45,0,0,0,2.2.5,5.33,5.33,0,0,0,3.4-1.3l14.7-13.6,14.7,13.6a5,5,0,0,0,8.4-4.1l-1.5-20,19.8-3a4.9,4.9,0,0,0,4.1-3.8A4.17,4.17,0,0,0,745.9,183.19Z"></path><path class="cls-1" d="M501.59,740.4a5,5,0,0,1-4.8,3.6h-340a5,5,0,0,1-4.8-3.6,5,5,0,0,1,2.1-5.6c47-30.72,73.74-63.54,81.14-100.46,4.2-20.81,2.2-43-5.7-66.83-5.41-16.21-15.91-32.82-27-50.23-16.21-25.52-35.32-55.43-44.72-94.65a215.13,215.13,0,0,1-5.9-50.63c0-65.64,28.11-109.86,50.72-145.28,11.11-17.51,21.61-34,27-50.23,22-66.13-1.9-119.26-75.44-167.29a5,5,0,0,1-2.1-5.6,5,5,0,0,1,4.8-3.6h340a5,5,0,0,1,4.8,3.6,5,5,0,0,1-2.1,5.6c-73.54,48-97.45,101.26-75.44,167.29,5.41,16.21,15.91,32.82,27,50.23,22.61,35.52,50.72,79.64,50.72,145.28s-28.11,109.86-50.72,145.28c-11.11,17.51-21.61,34-27,50.23-22,66.13,1.9,119.26,75.44,167.29A5.08,5.08,0,0,1,501.59,740.4Z"></path><polygon class="cls-2" points="1393.61 204.3 1393.61 404 1193.9 404 1393.61 204.3"></polygon><path class="cls-2" d="M1398.61,404a5,5,0,0,1-5,5h-199.7a5,5,0,0,1-4.6-3.1,4.91,4.91,0,0,1,1.1-5.4l199.7-199.7a5,5,0,0,1,8.5,3.5ZM1206,399h182.6V216.4Z"></path><circle class="cls-5" cx="1193.9" cy="204.79" r="199.7"></circle><path class="cls-2" d="M1193.9,409.49c-112.9,0-204.7-91.8-204.7-204.7S1081,.09,1193.9.09s204.7,91.8,204.7,204.7S1306.8,409.49,1193.9,409.49Zm0-399.4c-107.4,0-194.7,87.3-194.7,194.7s87.3,194.7,194.7,194.7,194.7-87.3,194.7-194.7S1301.3,10.09,1193.9,10.09Z"></path><path class="cls-1" d="M1393.6,204.79s-89.4,96.7-199.7,96.7-199.7-96.7-199.7-96.7,89.4-96.7,199.7-96.7S1393.6,204.79,1393.6,204.79Z"></path><path class="cls-2" d="M1193.9,306.49c-58.2,0-110.4-26.7-144-49.2-36.2-24.2-58.5-48.1-59.4-49.1a5,5,0,0,1,0-6.8c.9-1,23.2-24.9,59.4-49.1,33.5-22.4,85.8-49.2,144-49.2s110.4,26.7,144,49.2c36.2,24.2,58.5,48.1,59.4,49.1a5,5,0,0,1,0,6.8c-.9,1-23.2,24.9-59.4,49.1C1304.4,279.79,1252.2,306.49,1193.9,306.49Zm-192.7-101.7a368.09,368.09,0,0,0,54.5,44.3c32.3,21.6,82.6,47.4,138.2,47.4s105.9-25.8,138.2-47.4a373.8,373.8,0,0,0,54.5-44.3,368.09,368.09,0,0,0-54.5-44.3c-32.3-21.6-82.6-47.4-138.2-47.4s-106,25.8-138.4,47.5A376.82,376.82,0,0,0,1001.2,204.79Z"></path><circle class="cls-2" cx="1193.9" cy="204.79" r="65.1"></circle><path class="cls-2" d="M1193.9,275a70.1,70.1,0,1,1,70.1-70.1A70.18,70.18,0,0,1,1193.9,275Zm0-130.3a60.1,60.1,0,1,0,60.1,60.1A60.15,60.15,0,0,0,1193.9,144.69Z"></path><rect class="cls-1" x="644.61" y="405" width="538" height="334"></rect><path class="cls-2" d="M1183.61,744h-538a5,5,0,0,1-5-5V405a5,5,0,0,1,5-5h538a5,5,0,0,1,5,5V738.91A5.1,5.1,0,0,1,1183.61,744Zm-533-10h528V410h-528Z"></path><rect class="cls-3" x="644.61" y="404" width="538" height="68"></rect><path class="cls-2" d="M1183.61,477h-538a5,5,0,0,1-5-5V404a5,5,0,0,1,5-5h538a5,5,0,0,1,5,5v68A5,5,0,0,1,1183.61,477Zm-533-10h528V409h-528Z"></path><circle class="cls-4" cx="907.9" cy="595.89" r="43"></circle><path class="cls-2" d="M907.9,643.89a48,48,0,1,1,48-48A48,48,0,0,1,907.9,643.89Zm0-86a38,38,0,1,0,38,38A38,38,0,0,0,907.9,557.89Z"></path><line class="cls-6" x1="938.3" y1="626.29" x2="973.4" y2="661.39"></line><path class="cls-2" d="M973.4,666.39a4.69,4.69,0,0,1-3.5-1.5l-35.1-35.1a5,5,0,1,1,7.1-7.1l35.1,35.1a5,5,0,0,1,0,7.1A5.25,5.25,0,0,1,973.4,666.39Z"></path><path class="cls-2" d="M332.4,337.49a4.69,4.69,0,0,1-3.5-1.5L1.5,8.69a5,5,0,0,1,0-7.1,5,5,0,0,1,7.1,0L335.9,329a5,5,0,0,1-3.5,8.5Z"></path><path class="cls-2" d="M1431.6,574.59a4.69,4.69,0,0,1-3.5-1.5l-79.7-79.7a5,5,0,0,1,7.1-7.1l79.7,79.7a5,5,0,0,1,0,7.1A5.25,5.25,0,0,1,1431.6,574.59Z"></path><path class="cls-2" d="M819.9,100.49a37,37,0,1,1,37-37A37,37,0,0,1,819.9,100.49Zm0-64.1a27,27,0,1,0,27,27A27,27,0,0,0,819.9,36.39Z"></path><path class="cls-2" d="M235.3,634.19a112.74,112.74,0,1,1-77.5-211.6c9.4,39.2,28.5,69.1,44.7,94.6,11.1,17.5,21.6,34,27,50.2C237.5,591.29,239.5,613.39,235.3,634.19Z"></path><path class="cls-4" d="M305.8,529.69a112.67,112.67,0,0,1-70.4,104.5c4.2-20.8,2.2-43-5.7-66.8-5.4-16.2-15.9-32.8-27-50.2-16.2-25.5-35.3-55.4-44.7-94.6a112.71,112.71,0,0,1,147.8,107.1Z"></path><rect class="cls-2" x="321.61" y="125" width="10" height="33"></rect><line class="cls-6" x1="310.61" y1="141" x2="343.61" y2="141"></line><rect class="cls-2" x="310.61" y="136" width="33" height="10"></rect><rect class="cls-2" x="1319.61" y="647" width="10" height="33"></rect><line class="cls-6" x1="1307.61" y1="664" x2="1340.61" y2="664"></line><rect class="cls-2" x="1307.61" y="659" width="33" height="10"></rect></g></g></svg> 