<?xml version="1.0" encoding="UTF-8"?> <svg xmlns="http://www.w3.org/2000/svg" viewBox="0 0 988.32 504.53"><defs><style>.cls-1{fill:#fff;}</style></defs><g id="Layer_2" data-name="Layer 2"><g id="Layer_1-2" data-name="Layer 1"><g id="Layer_2-2" data-name="Layer 2"><path class="cls-1" d="M369.68,280.9a135.6,135.6,0,0,1,6-19.7,93.58,93.58,0,0,1,9.4-18.7,82.67,82.67,0,0,1,13.2-15.7,59.32,59.32,0,0,1,17.2-11.2c2.7-.5,5.6-.9,8.8-1.3a69.27,69.27,0,0,0,9.1-1.6,26.73,26.73,0,0,0,7.8-3.2,11.75,11.75,0,0,0,4.9-5.9,12.91,12.91,0,0,0,.7-4.3,7,7,0,0,0-1-4,26.38,26.38,0,0,1-2.3-4.4,7.55,7.55,0,0,0-4-4.4,30.26,30.26,0,0,0-7.6-2.8,78.29,78.29,0,0,0-9.7-1.5c-3.5-.3-6.7-.4-9.8-.4-2.9,0-5.4.1-7.6.3a30,30,0,0,0-5.1.8c-9,2-17.6,6.4-26.1,13.2a116.64,116.64,0,0,0-22.3,23.7,126.59,126.59,0,0,0-15.4,28.2c-3.8,9.8-5.7,18.6-5.7,26.5a24.84,24.84,0,0,0-.2,3.8v4.6a201.32,201.32,0,0,1-27.3,20.3c-8.8,5.5-26.7,9.7-34.2,9.7H266c-8.2-.7-13.9-3.8-16.8-9.4a41.1,41.1,0,0,1-4.5-19.5,73.22,73.22,0,0,1,1-12.4c.7-4.2,1.5-8.4,2.5-12.4,3.6-14.5,9.1-26.9,16.6-37s14.9-15.2,22.5-15.2a1.64,1.64,0,0,1,1.2.2c.2.2.6.2,1.2.2a36.85,36.85,0,0,0,7.4.5c5.9,0,10.6-1.3,14.1-3.8s5.2-5.5,5.2-8.8a10.76,10.76,0,0,0-2.7-6.8c-1.8-2.2-5-3.9-9.7-5.3a62.52,62.52,0,0,0-12.1-2.8,98.34,98.34,0,0,0-12.1-.8,88.09,88.09,0,0,0-37.4,8.1,102.82,102.82,0,0,0-30.9,21.7,109.5,109.5,0,0,0-21.3,30.8,83.06,83.06,0,0,0-7.9,35.3c0,10.8,1.6,20,4.7,27.8a59.45,59.45,0,0,0,12.1,19.2,52.7,52.7,0,0,0,17.3,11.8,80.61,80.61,0,0,0,20.4,5.8,83.74,83.74,0,0,0,15.8,1.5,88.87,88.87,0,0,0,35.6-7.2,132,132,0,0,0,32.2-19.9,144.22,144.22,0,0,0,12.8-11.9,47.48,47.48,0,0,0,4.7,9.6A55.78,55.78,0,0,0,348,323.8a112.09,112.09,0,0,0,14.8,10.8,54,54,0,0,0,28.8,8.7,33.67,33.67,0,0,0,12.9-2.5,53,53,0,0,0,18.3-13.1A85.25,85.25,0,0,0,436,308.3a102.72,102.72,0,0,0,10.3-44c0-1.4-.1-3.3-.3-5.5s-.5-4.6-.9-6.8a30.71,30.71,0,0,0-1.8-6.1,5.45,5.45,0,0,0-3-3.3,1.69,1.69,0,0,1-.3-1,1.21,1.21,0,0,0-.3-1,8.92,8.92,0,0,0-1.5-3.1c-.7-.8-1.5-1.6-2.3-2.4a12.78,12.78,0,0,0-2.1-3.8c-1.2-1.8-2.2-2.6-3.1-2.6l-1.8-3.3a2.62,2.62,0,0,0-1.5-.2q-1.5,0-1.5,1.2a1.16,1.16,0,0,0-.2,1,3.4,3.4,0,0,0,.1,1,3.4,3.4,0,0,1,.1,1,32.53,32.53,0,0,1,2.1,8.7c.3,3,.5,5.9.6,8.9a196.45,196.45,0,0,1-5.5,28.5,141.71,141.71,0,0,1-10.3,26.7,59.44,59.44,0,0,1-5.3,8.7,36.07,36.07,0,0,1-7.3,7.3,26.73,26.73,0,0,1-6.5,3.9,20.64,20.64,0,0,1-8.5,1.5,11.69,11.69,0,0,1-8.3-3,21,21,0,0,1-5-7.5,38.33,38.33,0,0,1-2.5-10.1,92.79,92.79,0,0,1-.7-10.6c0-2.2,0-4.4.2-6.4s.7-3.8.8-5.1Zm252,0a135.6,135.6,0,0,1,6-19.7,93.58,93.58,0,0,1,9.4-18.7,82.67,82.67,0,0,1,13.2-15.7,59.32,59.32,0,0,1,17.2-11.2c2.7-.5,5.6-.9,8.8-1.3a69.27,69.27,0,0,0,9.1-1.6,26.73,26.73,0,0,0,7.8-3.2,11.75,11.75,0,0,0,4.9-5.9,12.91,12.91,0,0,0,.7-4.3,7,7,0,0,0-1-4,26.38,26.38,0,0,1-2.3-4.4,7.55,7.55,0,0,0-4-4.4,30.26,30.26,0,0,0-7.6-2.8,78.29,78.29,0,0,0-9.7-1.5c-3.5-.3-6.7-.4-9.8-.4-2.9,0-5.4.1-7.6.3a30,30,0,0,0-5.1.8c-9,2-17.6,6.4-26.1,13.2a116.64,116.64,0,0,0-22.3,23.7,126.59,126.59,0,0,0-15.4,28.2c-3.8,9.8-5.7,18.6-5.7,26.5a24.84,24.84,0,0,0-.2,3.8v3.6c-4.5,6.1-8.9,11.8-13.2,17.2a281.07,281.07,0,0,1-20.4,23.3q-9,9-13.2,9a1.55,1.55,0,0,1-1.4-.5c-1.8-1.6-3.2-5.6-4-12a194.11,194.11,0,0,1-1.3-22.9c0-6.9.1-14.1.3-21.5s.5-14.5.8-21.3.5-12.8.8-18.2.5-9.5.8-12.3q10.8-21.75,20.9-41c6.8-12.8,12.9-25.6,18.4-38.4a384.1,384.1,0,0,0,14.8-40.5,332.6,332.6,0,0,0,10.4-47.3,136.05,136.05,0,0,0,1.2-18q-.15-19.8-7.5-28.8c-4.7-5.8-11.4-8.8-20-8.7H566a17.37,17.37,0,0,0-3.9.5c-9.1,1.6-18.2,8.1-27.4,19.5S517,45.7,509.28,63a369.54,369.54,0,0,0-20.1,57.8,435.88,435.88,0,0,0-11.9,63.1,530.76,530.76,0,0,0-3.6,64.3c.2,19.5,1.8,36.4,4.9,50.7s8.2,24.7,15.3,31.3a88.52,88.52,0,0,0,17.9,13.1,37.67,37.67,0,0,0,18.3,4.6c11-.1,22.6-5.3,35-15.6A182.85,182.85,0,0,0,588,308.5c.7,1.3,1.4,2.5,2.1,3.7a55.78,55.78,0,0,0,10.1,11.6A112.09,112.09,0,0,0,615,334.6a54,54,0,0,0,28.8,8.7,33.67,33.67,0,0,0,12.9-2.5A53,53,0,0,0,675,327.7a85.25,85.25,0,0,0,13.2-19.4,102.72,102.72,0,0,0,10.3-44c0-1.4-.1-3.3-.3-5.5s-.5-4.6-.9-6.8a30.71,30.71,0,0,0-1.8-6.1,5.45,5.45,0,0,0-3-3.3,1.69,1.69,0,0,1-.3-1,1.21,1.21,0,0,0-.3-1,8.92,8.92,0,0,0-1.5-3.1c-.7-.8-1.5-1.6-2.3-2.4a12.78,12.78,0,0,0-2.1-3.8c-1.2-1.8-2.2-2.6-3.1-2.6l-1.8-3.3a2.62,2.62,0,0,0-1.5-.2q-1.5,0-1.5,1.2a1.16,1.16,0,0,0-.2,1,3.4,3.4,0,0,0,.1,1,3.4,3.4,0,0,1,.1,1,32.53,32.53,0,0,1,2.1,8.7c.3,3,.5,5.9.6,8.9a196.45,196.45,0,0,1-5.5,28.5A141.71,141.71,0,0,1,665,302.2a59.44,59.44,0,0,1-5.3,8.7,36.07,36.07,0,0,1-7.3,7.3,26.73,26.73,0,0,1-6.5,3.9,20.64,20.64,0,0,1-8.5,1.5,11.69,11.69,0,0,1-8.3-3,21,21,0,0,1-5-7.5,38.33,38.33,0,0,1-2.5-10.1,92.79,92.79,0,0,1-.7-10.6c0-2.2,0-4.4.2-6.4s.5-3.8.6-5.1ZM539,141.7c3.2-14.7,7.2-29.8,11.8-45.4s9.5-30.4,14.7-44.2,10.1-24.5,14.6-31.7c0-.3.1.3.2,1.9s.2,3,.3,4.2a370.7,370.7,0,0,1-7.9,40.2c-3.3,12.6-6.9,25-10.9,37.1s-8.3,24.1-13,36-9.6,23.9-15,36.2c.2-8.2,2-19.6,5.2-34.3ZM985.38,266c-1.9-2.6-3.9-3.8-6-3.7-1.3.1-2.5.9-3.5,2.7-.5,1-3.4,5.9-5.8,10.9-4.4,9.2-11.8,19-15.4,23.4s-6.6,6.6-8.7,6.7a2.43,2.43,0,0,1-2.1-.9c-1.1-1.3-1.8-4.1-2-8.4a146.76,146.76,0,0,1,1.1-22q1.5-13.5,3.6-27.6c1.4-9.4,2.8-17.9,4.2-25.6a144.87,144.87,0,0,0,2.2-16.1,18,18,0,0,0,.9-6.5c-.2-4.7-2.3-8.9-6.1-12.7s-8.1-5.6-12.9-5.3a16.12,16.12,0,0,1-3.8-.1c-1.1-.1-2.3-.1-3.4-.1a7.33,7.33,0,0,0-4.7,1.7c-3.1,2.5-6,7.4-8.7,14.9a181.94,181.94,0,0,0-7,25l-1.5,7.5a19.86,19.86,0,0,0-6.7,2.8c-11.5,6.5-26.8,18-39.2,28-.4-9.1-2.2-54.8-2.2-56.5a24,24,0,0,1,.5-4.6,23.16,23.16,0,0,0,.4-4.6,12.94,12.94,0,0,0-3.2-8,15.17,15.17,0,0,0-6.6-4.3,34.78,34.78,0,0,0-8.5-1.8c-3.1-.3-6.1-.5-9.2-.5a98.57,98.57,0,0,0-40.3,8.9,156.42,156.42,0,0,0-36.4,22.4,123.25,123.25,0,0,0-26.3,29.5c-6.7,10.7-10.1,20.9-10.1,30.7,0,5.2,12.5,62.1,84,8.8,26.3-19.6,23.8-30.2,27.2-31.7.3,4.3.5,4.9.5,9.2v25.2c-6.1,6.4-43.7,44.4-77.7,89.4-15.6,22.9-30,55-34,76-3.9,20.7-11.8,65.4,35.9,54,25.1-6,66.1-56,77.2-86.2,12.1-33.1,27.9-70.3,29.7-114.9l-.2-7L899,255.7s1.9-2.9,4-6.8a12.25,12.25,0,0,0-.2,1.9,160.88,160.88,0,0,0-1,25c.5,9.6,1.9,17.4,4.2,23.2a51.55,51.55,0,0,0,7.9,14.1,29.58,29.58,0,0,0,9,7.5c3,1.5,5.5,2.7,7.4,3.6a24.83,24.83,0,0,0,5.9,1.7,32.52,32.52,0,0,0,5.4.2c6.9-.3,13.6-3.3,20-8.7a101.77,101.77,0,0,0,18.1-20.6A51.64,51.64,0,0,0,987,281a10.39,10.39,0,0,0,1.3-6,15.11,15.11,0,0,0-2.9-9Zm-186.3-16.5c-18.6,19.4-41.1,26.5-46,22-5.2-4.8,10.4-28.2,28-43,25.5-21.5,37.6-24.8,41.6-26.3C828.08,202.5,820.08,227.5,799.08,249.5Zm17.1,117.2a366,366,0,0,1-18.3,41,290.44,290.44,0,0,1-23.6,38c-8.6,11.6-16.6,20-24.3,25.2.3-11.3,3.3-23.3,8.9-35.9A293.47,293.47,0,0,1,779,397.5c7.8-12.4,15.9-24.2,24.3-35.5s15.6-21.2,21.7-29.8c-.8,9.4-3.7,20.9-8.8,34.5Zm112.5-213.5a47.8,47.8,0,0,0,7.5,9.3c2.8,2.8,5.8,4.2,8.9,4,5.1-.2,9.6-2.9,13.6-8a25.16,25.16,0,0,0,5.5-17.5l-.2-3.6c-.4-8.7-1.9-14.7-4.3-18.1a10.52,10.52,0,0,0-9.6-4.7,33.85,33.85,0,0,0-7.6,1.9,39.41,39.41,0,0,0-9.7,5.2,34.18,34.18,0,0,0-8.1,8,14.56,14.56,0,0,0-3.1,9.8,98.68,98.68,0,0,0,7.1,13.7Z"></path><path class="cls-1" d="M182.08,54.5c11,0,17-17,14-19s-123-12-155-6-10,22-10,22-18,143-24,182c-5,32.4-12,94-2,108s76.3,7.4,100,2c57-13,71-18,74-21s.8-12.8-8-11c-10,2-30,2-78,3-6,.1-31,0-31-6s14-110,14-110c0-3,71,1,78,0s16-19,11-22-85-4-85-4l17-114S171.08,54.5,182.08,54.5Z"></path></g></g></g></svg> 