<?xml version="1.0" encoding="UTF-8"?> <svg xmlns="http://www.w3.org/2000/svg" xmlns:xlink="http://www.w3.org/1999/xlink" id="ss-mark" width="1248.037" height="1098.989" viewBox="0 0 1248.037 1098.989"><defs><clipPath id="clip-path"><rect id="Rectangle_228" data-name="Rectangle 228" width="1248.037" height="1098.989" fill="none"></rect></clipPath><clipPath id="clip-path-3"><rect id="Rectangle_225" data-name="Rectangle 225" width="1227.841" height="595.658" fill="none"></rect></clipPath></defs><g id="Group_136" data-name="Group 136" clip-path="url(#clip-path)"><g id="Group_135" data-name="Group 135" transform="translate(0 0)"><g id="Group_134" data-name="Group 134" clip-path="url(#clip-path)"><g id="Group_130" data-name="Group 130" transform="translate(0 503.331)" opacity="0.5"><g id="Group_129" data-name="Group 129"><g id="Group_128" data-name="Group 128" clip-path="url(#clip-path-3)"><path id="Path_1699" data-name="Path 1699" d="M635.137,55.5,1177,281.285c54.974,22.9,54.974,100.779,0,123.692L635.137,630.751a66.961,66.961,0,0,1-51.541,0L41.731,404.977c-54.974-22.913-54.974-100.789,0-123.692L583.6,55.5A66.961,66.961,0,0,1,635.137,55.5Z" transform="translate(4.549 -45.302)" fill="none" stroke="#fff" stroke-miterlimit="10" stroke-width="1"></path></g></g></g><g id="Group_133" data-name="Group 133" transform="translate(20.196 251.159)" opacity="0.8"><g id="Group_132" data-name="Group 132"><g id="Group_131" data-name="Group 131" clip-path="url(#clip-path-3)"><path id="Path_1700" data-name="Path 1700" d="M637.137,30.529,1179,256.313c54.974,22.9,54.974,100.779,0,123.692L637.137,605.779a66.961,66.961,0,0,1-51.541,0L43.731,380c-54.974-22.913-54.974-100.789,0-123.692L585.6,30.529A66.961,66.961,0,0,1,637.137,30.529Z" transform="translate(2.549 -20.328)" fill="none" stroke="#fff" stroke-miterlimit="10" stroke-width="1"></path></g></g></g><path id="Path_1701" data-name="Path 1701" d="M633.161,5.634l540,225c54.792,22.832,54.792,100.446,0,123.268l-540,225.006a66.8,66.8,0,0,1-51.369,0L41.795,353.9c-54.782-22.822-54.782-100.436,0-123.268l540-225A66.8,66.8,0,0,1,633.161,5.634Z" transform="translate(6.444 4.544)" fill="none" stroke="#fff" stroke-miterlimit="10" stroke-width="1"></path></g></g></g></svg> 