<?xml version="1.0" encoding="UTF-8"?> <svg xmlns="http://www.w3.org/2000/svg" width="80" height="80" viewBox="0 0 80 80"><g id="Group_21" data-name="Group 21" transform="translate(-179 -1256)"><rect id="Rectangle_74" data-name="Rectangle 74" width="80" height="80" rx="3" transform="translate(179 1256)" fill="#6900f5" opacity="0.07"></rect><g id="Group_20" data-name="Group 20" transform="translate(179 1256)"><g id="Rectangle_73" data-name="Rectangle 73" fill="none" stroke="#6900f5" stroke-width="1"><rect width="80" height="80" rx="3" stroke="none"></rect><rect x="0.5" y="0.5" width="79" height="79" rx="2.5" fill="none"></rect></g><g id="surface15814884" transform="translate(19.623 19.623)"><g id="Group_4" data-name="Group 4" transform="translate(8.291 2.099)" opacity="0.24"><path id="Path_1500" data-name="Path 1500" d="M58.364,55.016c18.24-11.608,19.9-23.838,20.728-29.227a1.648,1.648,0,0,0-1.865-1.865c-5.39.829-17.619,2.488-29.227,20.728Zm0,0" transform="translate(-48 -23.897)" fill="#6900f5"></path></g><path id="Path_1501" data-name="Path 1501" d="M54.067,50.672l-2.28-3.523c17-10.572,19.07-21.765,19.9-27.154-5.39.829-16.583,2.9-27.362,19.692L40.8,37.406C53.03,18.543,66.089,16.678,71.478,15.849a3.421,3.421,0,0,1,3.109,1.036,3.608,3.608,0,0,1,1.036,3.109C75,25.591,73.137,38.65,54.067,50.672Zm0,0" transform="translate(-34.375 -15.796)" fill="#6900f5"></path><path id="Path_1502" data-name="Path 1502" d="M54.8,64a2.073,2.073,0,1,0,2.073,2.073A2.073,2.073,0,0,0,54.8,64Zm-6.218,6.218a2.073,2.073,0,1,0,2.073,2.073A2.073,2.073,0,0,0,48.583,70.218ZM32,88.874l.415-2.9c.414-2.28,1.658-7.878,3.523-9.743l2.9,2.9a16.436,16.436,0,0,0-1.658,4.561,16.437,16.437,0,0,0,4.561-1.658l2.9,2.9c-1.865,1.865-7.462,3.109-9.743,3.523Zm0,0" transform="translate(-27.854 -51.51)" fill="#6900f5"></path><path id="Path_1503" data-name="Path 1503" d="M42.551,101.474l2.931-2.931,10.407,10.406-2.931,2.932Zm0,0" transform="translate(-35.671 -77.103)" fill="#6900f5"></path><path id="Path_1504" data-name="Path 1504" d="M25.12,82.364H18.694a2.691,2.691,0,0,1-2.487-1.658,2.568,2.568,0,0,1,.621-2.9l5.6-5.8h6.011ZM35.277,98.947a1.868,1.868,0,0,1-1.036-.208,2.691,2.691,0,0,1-1.658-2.487V89.411l10.364-2.9v6.426l-5.8,5.39A2.9,2.9,0,0,1,35.277,98.947Zm0,0" transform="translate(-16 -57.437)" fill="#6900f5"></path></g></g></g></svg> 