<?xml version="1.0" encoding="UTF-8"?> <svg xmlns="http://www.w3.org/2000/svg" width="80" height="80" viewBox="0 0 80 80"><g id="Group_22" data-name="Group 22" transform="translate(-802 -1256)"><rect id="Rectangle_75" data-name="Rectangle 75" width="80" height="80" rx="3" transform="translate(802 1256)" fill="#6900f5" opacity="0.07"></rect><g id="Rectangle_76" data-name="Rectangle 76" transform="translate(802 1256)" fill="none" stroke="#6900f5" stroke-width="1"><rect width="80" height="80" rx="3" stroke="none"></rect><rect x="0.5" y="0.5" width="79" height="79" rx="2.5" fill="none"></rect></g><g id="surface15816144" transform="translate(821.623 1275.623)"><g id="Group_5" data-name="Group 5" transform="translate(2.292 2.292)" opacity="0.24"><path id="Path_1505" data-name="Path 1505" d="M16,16H52.667V29.75H16Zm0,0" transform="translate(-16 -16)" fill="#6900f5"></path></g><path id="Path_1506" data-name="Path 1506" d="M32,40h4.583V62.917H32Zm9.167,11.458H52.625v4.583H41.167Zm0-6.875H52.625v4.583H41.167Zm0,0" transform="translate(-20.542 -23.958)" fill="#6900f5"></path><path id="Path_1507" data-name="Path 1507" d="M48.667,53.25H16.583A4.6,4.6,0,0,1,12,48.667V16.583A4.6,4.6,0,0,1,16.583,12H48.667a4.6,4.6,0,0,1,4.583,4.583V48.667A4.6,4.6,0,0,1,48.667,53.25ZM16.583,16.583V48.667H48.667V16.583Zm0,0" transform="translate(-12 -12)" fill="#6900f5"></path><path id="Path_1508" data-name="Path 1508" d="M16,30.875H52.667v4.583H16ZM22.875,24a2.292,2.292,0,1,0,2.292,2.292A2.29,2.29,0,0,0,22.875,24Zm6.875,0a2.292,2.292,0,1,0,2.292,2.292A2.29,2.29,0,0,0,29.75,24Zm6.875,0h9.167v4.583H36.625Zm0,0" transform="translate(-13.708 -17.125)" fill="#6900f5"></path></g></g></svg> 