<?xml version="1.0" encoding="UTF-8"?> <svg xmlns="http://www.w3.org/2000/svg" width="80" height="80" viewBox="0 0 80 80"><g id="Group_30" data-name="Group 30" transform="translate(-1419 -1208)"><g id="Group_23" data-name="Group 23" transform="translate(2 -48)"><rect id="Rectangle_77" data-name="Rectangle 77" width="80" height="80" rx="3" transform="translate(1417 1256)" fill="#6900f5" opacity="0.07"></rect><g id="Rectangle_78" data-name="Rectangle 78" transform="translate(1417 1256)" fill="none" stroke="#6900f5" stroke-width="1"><rect width="80" height="80" rx="3" stroke="none"></rect><rect x="0.5" y="0.5" width="79" height="79" rx="2.5" fill="none"></rect></g><g id="surface16241780" transform="translate(1434.359 1276.377)"><path id="Path_1509" data-name="Path 1509" d="M28.292,44.409H12.058V20.058H44.526V32.234h4.058V20.058A4.071,4.071,0,0,0,44.526,16H12.058A4.071,4.071,0,0,0,8,20.058V44.409a4.071,4.071,0,0,0,4.058,4.058H28.292Zm4.058,4.058H52.643v4.058H32.351Zm0,0" transform="translate(-8 -16)" fill="#6900f5"></path><path id="Path_1510" data-name="Path 1510" d="M56,60H76.292v4.058H56Zm0,0" transform="translate(-31.649 -37.679)" fill="#6900f5"></path><path id="Path_1511" data-name="Path 1511" d="M52.409,44.175h4.058v8.117H52.409ZM44.292,54.321h4.058v8.117H44.292Zm4.058-12.175L40.64,32l-7.1,8.117-5.073-5.073L24,40.117v8.117H36.175V46.2a4.071,4.071,0,0,1,4.058-4.058Zm0,0" transform="translate(-15.883 -23.883)" fill="#6900f5"></path><g id="Group_6" data-name="Group 6" transform="translate(2.029 2.029)" opacity="0.22"><path id="Path_1512" data-name="Path 1512" d="M44.468,34.2h4.058V20H12V48.409H30.263V36.234H42.438A1.987,1.987,0,0,1,44.468,34.2Zm0,0" transform="translate(-12 -20)" fill="#6900f5"></path></g></g></g></g></svg> 