<?xml version="1.0" encoding="UTF-8"?> <svg xmlns="http://www.w3.org/2000/svg" xmlns:xlink="http://www.w3.org/1999/xlink" width="24pt" height="24pt" viewBox="0 0 24 24"><g id="surface68614"><path style=" stroke:none;fill-rule:nonzero;fill:rgb(100%,100%,100%);fill-opacity:1;" d="M 12 2 C 7.570312 2 4 5.570312 4 10 L 4 14 C 4 18.429688 7.570312 22 12 22 C 16.429688 22 20 18.429688 20 14 L 20 10 C 20 5.570312 16.429688 2 12 2 Z M 12 4 C 15.371094 4 18 6.628906 18 10 L 18 14 C 18 17.371094 15.371094 20 12 20 C 8.628906 20 6 17.371094 6 14 L 6 10 C 6 6.628906 8.628906 4 12 4 Z M 12 6 L 9 9 L 11 9 L 11 11 L 9 11 L 12 14 L 15 11 L 13 11 L 13 9 L 15 9 Z M 12 6 "></path></g></svg> 