<?xml version="1.0" encoding="UTF-8"?> <svg xmlns="http://www.w3.org/2000/svg" xmlns:xlink="http://www.w3.org/1999/xlink" width="26pt" height="26pt" viewBox="0 0 26 26"><g id="surface38283"><path style=" stroke:none;fill-rule:nonzero;fill:rgb(100%,100%,100%);fill-opacity:1;" d="M 24.90625 0 C 24.773438 0.015625 24.648438 0.0585938 24.53125 0.125 L 0.53125 13.125 C 0.183594 13.316406 -0.015625 13.699219 0.0273438 14.09375 C 0.0664062 14.488281 0.339844 14.820312 0.71875 14.9375 L 7.09375 16.84375 C 7.242188 18.023438 7.90625 23.128906 8.03125 24.125 C 8.15625 25.117188 8.828125 25.289062 9.5 24.375 C 9.953125 23.757812 12.625 20 12.625 20 L 18.3125 25.6875 C 18.5625 25.9375 18.925781 26.035156 19.265625 25.945312 C 19.609375 25.855469 19.875 25.589844 19.96875 25.25 L 25.96875 1.25 C 26.058594 0.933594 25.980469 0.59375 25.769531 0.34375 C 25.554688 0.09375 25.234375 -0.0351562 24.90625 0 Z M 23.46875 2.9375 L 18.4375 23.0625 L 12.78125 17.40625 L 21 6 L 8.21875 15.125 L 3.5625 13.75 Z M 23.46875 2.9375 "></path></g></svg> 